<svg width="20" height="20" viewBox="0 0 20 20" fill="none" xmlns="http://www.w3.org/2000/svg">
<g clip-path="url(#clip0)">
<path d="M16.0393 0H3.9602C3.12748 0 2.3446 0.324304 1.75581 0.913218C1.16705 1.50209 0.842862 2.28501 0.843018 3.11781L0.845511 14.4171C0.845823 16.1329 2.24189 17.531 3.95759 17.5337C4.57725 17.5347 6.60244 17.535 8.89641 17.535C11.8951 17.535 15.3513 17.5345 16.7214 17.5342L19.1565 20V3.11718C19.1565 1.39837 17.7581 0 16.0393 0ZM17.5979 16.2372L15.1874 13.7546L15.1821 15.9756L15.1824 15.9759C11.7216 15.9763 5.16725 15.977 3.96001 15.9751C3.10223 15.9738 2.40426 15.2747 2.4041 14.4168L2.40161 3.11746C2.40153 2.70108 2.56362 2.3096 2.858 2.01518C3.15242 1.72076 3.54386 1.55859 3.9602 1.55859H16.0393C16.8987 1.55859 17.5979 2.25778 17.5979 3.11718V16.2372ZM6.45395 6.54608C6.45395 5.68531 6.94241 4.98749 7.54496 4.98749C8.14751 4.98749 8.63597 5.68531 8.63597 6.54608C8.63597 7.40686 8.14751 8.10468 7.54496 8.10468C6.94241 8.10468 6.45395 7.40686 6.45395 6.54608ZM11.4025 6.54608C11.4025 5.68531 11.8909 4.98749 12.4935 4.98749C13.096 4.98749 13.5845 5.68531 13.5845 6.54608C13.5845 7.40686 13.096 8.10468 12.4935 8.10468C11.8909 8.10468 11.4025 7.40686 11.4025 6.54608ZM14.6732 9.8524L15.691 11.0328C15.6119 11.1009 13.7119 12.7025 9.99974 12.7025C6.28761 12.7025 4.38757 11.1009 4.30851 11.0327L5.32631 9.85236L5.32194 9.84862C5.33745 9.8616 6.90625 11.1439 9.99974 11.1439C13.0932 11.1439 14.662 9.8616 14.6775 9.84866L14.6732 9.8524Z" fill="#0C162C"/>
</g>
<defs>
<clipPath id="clip0">
<rect width="20" height="20" fill="white"/>
</clipPath>
</defs>
</svg>
