<svg width="121" height="125" viewBox="0 0 121 125" fill="none" xmlns="http://www.w3.org/2000/svg">
<path d="M1.73519 46.6881L117.569 45.6312L121 124L1 123.106L1.73519 46.6881Z" fill="#A0B3F2"/>
<path d="M1.73505 46.688L56.4662 2.38196C58.7534 0.512165 62.1026 0.512165 64.3899 2.38196L117.569 45.5498" fill="#A0B3F2"/>
<g opacity="0.3">
<g opacity="0.3">
<g opacity="0.3">
<path opacity="0.3" d="M1.73505 46.688L56.4662 2.38196C58.7534 0.512165 62.1026 0.512165 64.3899 2.38196L117.569 45.5498" fill="black"/>
</g>
</g>
</g>
<path d="M0.999798 123.106C0.836421 122.943 10.1489 112.862 21.6669 100.587C33.2667 88.23 42.7425 78.3932 42.8242 78.5558C42.9876 78.7184 33.7568 88.799 22.1571 101.075C10.639 113.35 1.16317 123.268 0.999798 123.106Z" fill="#263238"/>
<path d="M121 124C120.836 124.162 111.769 114.244 100.741 101.969C89.7131 89.6932 80.8907 79.6126 81.0541 79.45C81.2175 79.2874 90.2849 89.2054 101.313 101.481C112.341 113.757 121.081 123.837 121 124Z" fill="#263238"/>
<g opacity="0.5">
<g opacity="0.5">
<g opacity="0.5">
<path opacity="0.5" d="M117.569 45.6312L59.4886 91.9696L1.73505 46.6881" fill="black"/>
</g>
</g>
</g>
<path d="M7.53474 50.9153L7.28967 14.9014L108.746 13.5194L109.972 51.4031L59.4884 91.4004L7.53474 50.9153Z" fill="#FAFAFA"/>
<path d="M7.53458 50.9153C7.53458 50.9153 7.86133 51.1592 8.51484 51.647C9.16834 52.1347 10.0669 52.8664 11.2922 53.7606C13.7429 55.6304 17.2555 58.3945 21.83 61.8902C30.8974 68.8816 43.8858 78.9622 59.6517 91.2378H59.4066C73.9471 79.6939 91.1833 66.0363 109.89 51.2405L109.808 51.4031C109.563 44.1678 109.318 36.6073 109.073 28.8842C108.91 23.6813 108.746 18.5597 108.583 13.5194L108.828 13.7633C67.9839 14.3324 31.8777 14.7388 7.3712 15.064L7.53458 14.9014C7.53458 26.2828 7.53458 35.2253 7.53458 41.4037C7.53458 44.493 7.53458 46.8505 7.53458 48.4764C7.53458 49.2894 7.53458 49.8585 7.53458 50.2649C7.53458 50.7527 7.53458 50.9153 7.53458 50.9153C7.53458 50.9153 7.53458 50.7527 7.53458 50.3462C7.53458 49.9398 7.53458 49.2894 7.53458 48.5577C7.53458 46.9318 7.45289 44.5743 7.45289 41.485C7.3712 35.3066 7.28951 26.2828 7.20782 14.9827V14.8201H7.3712C31.8777 14.4949 67.9022 13.9259 108.828 13.3568H109.073V13.6007C109.236 18.641 109.4 23.7626 109.563 28.9655C109.808 36.6886 110.053 44.2491 110.298 51.4844V51.5657L110.217 51.647C91.5101 66.4427 74.2739 80.1004 59.7334 91.563L59.6517 91.6443L59.57 91.563C43.6408 79.2061 30.6523 69.0442 21.585 61.9715C17.0921 58.4758 13.5795 55.7117 11.1289 53.7606C9.90354 52.7851 9.00497 52.1347 8.43315 51.647C7.86133 51.1592 7.53458 50.9153 7.53458 50.9153Z" fill="#263238"/>
<path d="M92.7358 31.7296C92.7358 31.8109 77.215 32.0548 58.1 32.2174C38.9849 32.38 23.4642 32.38 23.4642 32.2987C23.4642 32.2174 38.9849 31.9735 58.1 31.8109C77.215 31.5671 92.7358 31.5671 92.7358 31.7296Z" fill="#263238"/>
<path d="M92.8171 41.8916C92.8171 41.9729 77.2964 42.2168 58.1813 42.3794C39.0663 42.542 23.5455 42.542 23.5455 42.4607C23.5455 42.3794 39.0663 42.1355 58.1813 41.9729C77.2964 41.8103 92.8171 41.729 92.8171 41.8916Z" fill="#263238"/>
<path d="M92.8171 53.598C92.8171 53.6793 77.2964 53.9232 58.1813 54.0858C39.0663 54.2484 23.5455 54.2484 23.5455 54.1671C23.5455 54.0858 39.0663 53.8419 58.1813 53.6793C77.2964 53.5167 92.8171 53.4354 92.8171 53.598Z" fill="#263238"/>
<path d="M92.8173 65.3047C92.8173 65.386 78.0317 65.6299 59.7336 65.7925C41.4354 65.9551 26.6498 65.9551 26.6498 65.8738C26.6498 65.7925 41.4354 65.5486 59.7336 65.386C78.0317 65.2234 92.8173 65.2234 92.8173 65.3047Z" fill="#263238"/>
<path d="M79.9107 75.6292C79.9107 75.6292 79.7474 75.6291 79.5023 75.7104C79.1755 75.7104 78.7671 75.7104 78.3587 75.7917C77.2967 75.7917 75.8263 75.873 74.1109 75.873C70.4349 75.9543 65.4519 76.0356 59.9788 76.1169C54.424 76.1982 49.441 76.2795 45.8467 76.2795C44.0496 76.2795 42.6609 76.2795 41.599 76.2795C41.1088 76.2795 40.7821 76.2795 40.4553 76.2795C40.2103 76.2795 40.0469 76.2795 40.0469 76.2795C40.0469 76.2795 40.2103 76.2795 40.4553 76.1982C40.7821 76.1982 41.1905 76.1982 41.599 76.1169C42.6609 76.1169 44.1313 76.0356 45.8467 76.0356C49.5227 75.9543 54.5057 75.873 59.9788 75.7917C65.5336 75.7104 70.5166 75.6292 74.1109 75.6292C75.908 75.6292 77.2967 75.6292 78.3587 75.6292C78.8488 75.6292 79.1755 75.6292 79.5023 75.6292C79.7474 75.6292 79.9107 75.6292 79.9107 75.6292Z" fill="#263238"/>
<path d="M66.8403 85.5472C66.8403 85.6285 63.5728 85.7911 59.4884 85.7911C55.4039 85.7911 52.1364 85.7098 52.1364 85.6285C52.1364 85.5472 55.4039 85.3846 59.4884 85.3846C63.4911 85.3033 66.8403 85.4659 66.8403 85.5472Z" fill="#263238"/>
</svg>
