<svg width="562" height="561" viewBox="0 0 562 561" fill="none" xmlns="http://www.w3.org/2000/svg">
<line x1="551" y1="526" x2="11" y2="526" stroke="#1D1D1F" stroke-width="2"/>
<rect x="1" y="20" width="370.438" height="274.961" rx="19" fill="white" stroke="#1D1D1F" stroke-width="2"/>
<circle cx="23.6719" cy="34.7812" r="2.36719" fill="#0C162C"/>
<circle cx="34.7188" cy="34.7812" r="2.36719" fill="#0C162C"/>
<circle cx="45.7656" cy="34.7812" r="2.36719" fill="#0C162C"/>
<line x1="155.656" y1="48.1953" x2="155.656" y2="295.961" stroke="#1D1D1F" stroke-width="2"/>
<line x1="372.438" y1="154.141" x2="154.656" y2="154.141" stroke="#1D1D1F" stroke-width="2"/>
<line x1="372.438" y1="49.1953" y2="49.1953" stroke="#1D1D1F" stroke-width="2"/>
<line x1="134.93" y1="150.195" x2="22.8828" y2="150.195" stroke="#1D1D1F" stroke-width="2"/>
<line x1="134.93" y1="210.164" x2="22.8828" y2="210.164" stroke="#1D1D1F" stroke-width="2"/>
<line x1="134.93" y1="172.289" x2="22.8828" y2="172.289" stroke="#1D1D1F" stroke-width="2"/>
<line x1="134.93" y1="232.258" x2="22.8828" y2="232.258" stroke="#1D1D1F" stroke-width="2"/>
<line x1="134.93" y1="194.383" x2="22.8828" y2="194.383" stroke="#1D1D1F" stroke-width="2"/>
<line x1="134.93" y1="254.352" x2="22.8828" y2="254.352" stroke="#1D1D1F" stroke-width="2"/>
<line x1="85.2188" y1="158.086" x2="22.8828" y2="158.086" stroke="#D2D2DC" stroke-width="2"/>
<line x1="85.2188" y1="218.055" x2="22.8828" y2="218.055" stroke="#D2D2DC" stroke-width="2"/>
<line x1="85.2188" y1="180.18" x2="22.8828" y2="180.18" stroke="#D2D2DC" stroke-width="2"/>
<line x1="85.2188" y1="240.148" x2="22.8828" y2="240.148" stroke="#D2D2DC" stroke-width="2"/>
<line x1="85.2188" y1="202.273" x2="22.8828" y2="202.273" stroke="#D2D2DC" stroke-width="2"/>
<line x1="85.2188" y1="262.242" x2="22.8828" y2="262.242" stroke="#D2D2DC" stroke-width="2"/>
<rect x="21.3047" y="115.266" width="113.625" height="12.625" rx="3" fill="#DFE7FB"/>
<rect x="21.3047" y="98.6953" width="86.7969" height="12.625" rx="3" fill="#DFE7FB"/>
<rect x="180" y="82" width="250.5" height="166.07" rx="19" fill="white" stroke="#1D1D1F" stroke-width="2"/>
<path d="M209.332 98.2327L207.153 99.1042L209.332 99.9758V100.847L206.136 99.6853V98.8137L209.332 97.6516V98.2327Z" fill="#E8505B"/>
<path d="M214.707 96.7812V101.43H213.545V99.5412H211.366V101.43H210.204V96.7812H211.366V98.6696H213.545V96.7812H214.707Z" fill="#E8505B"/>
<path d="M216.742 97.6528H215.29V96.7812H219.357V97.6528H217.905V101.43H216.742V97.6528Z" fill="#E8505B"/>
<path d="M224.293 101.43V98.6696L222.84 100.994H222.404L220.952 98.6696V101.43H219.935V96.7812H220.806L222.549 99.6865L224.293 96.7812H225.164V101.43H224.293Z" fill="#E8505B"/>
<path d="M226.329 96.7812H227.491V100.558H229.815V101.43H226.329V96.7812Z" fill="#E8505B"/>
<path d="M233.445 98.6702V99.5417L230.25 100.704V99.8323L232.428 98.9607L230.25 98.0891V97.2175L233.445 98.6702Z" fill="#E8505B"/>
<path d="M207.446 227.374L205.267 228.245L207.446 229.117V229.988L204.25 228.826V227.955L207.446 226.792V227.374Z" fill="#E8505B"/>
<path d="M209.917 224.904H210.788L208.609 231.296H207.738L209.917 224.904Z" fill="#E8505B"/>
<path d="M215.436 225.921V230.57H214.274V228.681H212.095V230.57H210.933V225.921H212.095V227.81H214.274V225.921H215.436Z" fill="#E8505B"/>
<path d="M217.467 226.793H216.015V225.921H220.082V226.793H218.63V230.57H217.467V226.793Z" fill="#E8505B"/>
<path d="M225.022 230.57V227.81L223.569 230.134H223.133L221.681 227.81V230.57H220.664V225.921H221.535L223.278 228.826L225.022 225.921H225.893V230.57H225.022Z" fill="#E8505B"/>
<path d="M227.056 225.921H228.218V229.698H230.542V230.57H227.056V225.921Z" fill="#E8505B"/>
<path d="M234.319 227.809V228.68L231.123 229.842V228.971L233.302 228.099L231.123 227.228V226.356L234.319 227.809Z" fill="#E8505B"/>
<path d="M224.154 111.163L221.83 112.034L224.154 112.906V113.487L221.104 112.325V111.889L224.154 110.727V111.163Z" fill="black"/>
<path d="M229.384 109.71V114.358H228.657V112.325H225.898V114.358H225.171V109.71H225.898V111.744H228.657V109.71H229.384Z" fill="black"/>
<path d="M234.177 113.923V114.504H230.691V109.855H234.032V110.437H231.562V111.889H233.886V112.47H231.562V113.923H234.177Z" fill="black"/>
<path d="M238.39 113.342H235.921L235.34 114.504H234.614L236.792 109.855H237.519L239.698 114.504H238.826L238.39 113.342ZM238.1 112.761L237.083 110.437L236.066 112.761H238.1Z" fill="black"/>
<path d="M240.277 109.71H242.311C243.764 109.71 244.926 110.727 244.926 112.034C244.926 113.487 243.909 114.358 242.311 114.358H240.277V109.71ZM242.166 113.923C243.328 113.923 244.054 113.196 244.054 112.179C244.054 111.163 243.328 110.436 242.166 110.436H240.858V113.923H242.166Z" fill="black"/>
<path d="M248.56 111.889V112.47L245.51 113.632V113.051L247.979 112.179L245.51 111.308V110.727L248.56 111.889Z" fill="black"/>
<path d="M224.154 127.286L221.83 128.158L224.154 129.03V129.611L221.104 128.448V127.867L224.154 126.705V127.286Z" fill="black"/>
<path d="M226.334 126.56H224.736V125.979H228.658V126.56H227.06V130.628H226.334V126.56Z" fill="black"/>
<path d="M229.237 125.979H229.963V130.628H229.237V125.979Z" fill="black"/>
<path d="M232.289 126.56H230.691V125.979H234.613V126.56H233.015V130.628H232.289V126.56Z" fill="black"/>
<path d="M235.342 125.979H236.068V130.047H238.683V130.628H235.487V125.979H235.342Z" fill="black"/>
<path d="M242.749 130.047V130.628H239.263V125.979H242.604V126.56H239.989V128.013H242.313V128.594H239.989V130.047H242.749Z" fill="black"/>
<path d="M246.669 128.012V128.593L243.619 129.755V129.174L246.088 128.302L243.619 127.431V126.85L246.669 128.012Z" fill="black"/>
<path d="M249.575 125.979H250.302V130.047H252.916V130.628H249.72V125.979H249.575Z" fill="black"/>
<path d="M253.063 128.885C253.063 127.868 253.789 126.996 254.951 126.996C255.968 126.996 256.84 127.722 256.84 128.885C256.84 129.901 256.113 130.773 254.951 130.773C253.935 130.628 253.063 129.901 253.063 128.885ZM256.113 128.885C256.113 128.158 255.532 127.577 254.951 127.577C254.225 127.577 253.789 128.013 253.789 128.885C253.789 129.611 254.37 130.192 254.951 130.192C255.678 130.047 256.113 129.611 256.113 128.885Z" fill="black"/>
<path d="M259.596 126.995V127.576H259.451C258.725 127.576 258.289 128.012 258.289 128.738V130.481H257.708V126.85H258.289V127.431C258.579 127.285 259.015 126.995 259.596 126.995Z" fill="black"/>
<path d="M263.666 129.029H260.761C260.906 129.61 261.342 130.045 262.068 130.045C262.504 130.045 262.794 129.9 263.085 129.61L263.375 130.045C263.085 130.481 262.504 130.626 261.923 130.626C260.761 130.626 260.034 129.9 260.034 128.738C260.034 127.721 260.761 126.85 261.777 126.85C262.794 126.85 263.521 127.576 263.521 128.738C263.666 128.883 263.666 129.029 263.666 129.029ZM260.761 128.593H263.085C263.085 128.012 262.504 127.576 261.923 127.576C261.196 127.576 260.761 128.012 260.761 128.593Z" fill="black"/>
<path d="M270.49 128.594V130.628H269.909V128.594C269.909 127.868 269.618 127.577 269.037 127.577C268.456 127.577 268.021 128.013 268.021 128.739V130.628H267.44V128.594C267.44 127.868 267.149 127.577 266.568 127.577C265.987 127.577 265.551 128.013 265.551 128.739V130.628H264.97V126.996H265.551V127.577C265.842 127.141 266.277 126.996 266.713 126.996C267.294 126.996 267.73 127.141 268.021 127.722C268.311 127.287 268.747 126.996 269.328 126.996C269.909 126.996 270.49 127.577 270.49 128.594Z" fill="black"/>
<path d="M273.255 125.98C273.255 125.689 273.4 125.544 273.691 125.544C273.982 125.544 274.127 125.689 274.127 125.98C274.127 126.271 273.982 126.416 273.691 126.416C273.546 126.416 273.255 126.125 273.255 125.98ZM273.4 126.997H273.982V130.628H273.4V126.997Z" fill="black"/>
<path d="M279.065 128.885C279.065 130.047 278.339 130.773 277.322 130.773C276.886 130.773 276.305 130.628 276.014 130.192V132.081H275.433V127.142H276.014V127.723C276.305 127.287 276.741 127.142 277.322 127.142C278.193 126.996 279.065 127.723 279.065 128.885ZM278.339 128.885C278.339 128.159 277.757 127.578 277.176 127.578C276.45 127.578 276.014 128.013 276.014 128.885C276.014 129.611 276.595 130.192 277.176 130.192C277.903 130.047 278.339 129.611 278.339 128.885Z" fill="black"/>
<path d="M279.499 130.192L279.789 129.611C280.08 129.756 280.515 130.047 281.096 130.047C281.678 130.047 281.968 129.901 281.968 129.611C281.968 128.739 279.644 129.466 279.644 128.013C279.644 127.432 280.225 126.996 281.096 126.996C281.532 126.996 282.113 127.141 282.404 127.287L282.113 127.868C281.823 127.722 281.387 127.577 281.096 127.577C280.515 127.577 280.225 127.722 280.225 128.013C280.225 128.885 282.549 128.158 282.549 129.611C282.549 130.192 281.968 130.628 280.951 130.628C280.37 130.628 279.789 130.482 279.499 130.192Z" fill="black"/>
<path d="M286.618 126.996V130.628H286.037V130.047C285.747 130.482 285.311 130.628 284.875 130.628C284.003 130.628 283.277 130.192 283.277 129.03V126.996H283.858V129.03C283.858 129.756 284.149 130.047 284.875 130.047C285.601 130.047 286.037 129.611 286.037 128.885V126.996H286.618Z" fill="black"/>
<path d="M293.735 128.594V130.628H293.154V128.594C293.154 127.868 292.863 127.577 292.282 127.577C291.701 127.577 291.265 128.013 291.265 128.739V130.628H290.684V128.594C290.684 127.868 290.394 127.577 289.813 127.577C289.232 127.577 288.796 128.013 288.796 128.739V130.628H288.215V126.996H288.796V127.577C289.086 127.141 289.522 126.996 289.958 126.996C290.539 126.996 290.975 127.141 291.265 127.722C291.556 127.287 291.992 126.996 292.573 126.996C293.154 126.996 293.735 127.577 293.735 128.594Z" fill="black"/>
<path d="M299.546 127.286L297.222 128.158L299.546 129.03V129.611L296.496 128.448V127.867L299.546 126.705V127.286Z" fill="black"/>
<path d="M302.159 124.962H302.741L300.562 131.354H299.835L302.159 124.962Z" fill="black"/>
<path d="M304.339 126.56H302.741V125.979H306.663V126.56H305.066V130.628H304.339V126.56Z" fill="black"/>
<path d="M307.246 125.979H307.972V130.628H307.246V125.979Z" fill="black"/>
<path d="M310.296 126.56H308.698V125.979H312.62V126.56H311.022V130.628H310.296V126.56Z" fill="black"/>
<path d="M313.345 125.979H314.071V130.047H316.686V130.628H313.49V125.979H313.345Z" fill="black"/>
<path d="M320.752 130.047V130.628H317.266V125.979H320.607V126.56H317.992V128.013H320.316V128.594H317.992V130.047H320.752Z" fill="black"/>
<path d="M324.528 128.012V128.593L321.478 129.755V129.174L323.947 128.302L321.478 127.431V126.85L324.528 128.012Z" fill="black"/>
<path d="M224.154 143.558L221.83 144.429L224.154 145.301V145.882L221.104 144.72V144.139L224.154 142.977V143.558Z" fill="black"/>
<path d="M226.626 141.085H227.207L225.028 147.477H224.447L226.626 141.085Z" fill="black"/>
<path d="M231.708 142.104V146.753H230.982V144.719H228.222V146.753H227.496V142.104H228.222V144.138H230.982V142.104H231.708Z" fill="black"/>
<path d="M236.648 146.172V146.753H233.161V142.104H236.503V142.685H233.888V144.138H236.212V144.719H233.888V146.172H236.648Z" fill="black"/>
<path d="M240.717 145.591H238.247L237.666 146.753H236.94L239.119 142.104H239.845L242.024 146.753H241.298L240.717 145.591ZM240.426 145.009L239.409 142.685L238.393 145.009H240.426Z" fill="black"/>
<path d="M242.602 142.104H244.635C246.088 142.104 247.25 143.121 247.25 144.428C247.25 145.881 246.233 146.753 244.635 146.753H242.602V142.104ZM244.635 146.172C245.798 146.172 246.524 145.445 246.524 144.428C246.524 143.412 245.798 142.685 244.635 142.685H243.328V146.172H244.635Z" fill="black"/>
<path d="M250.883 144.139V144.72L247.832 145.882V145.301L250.302 144.429L247.832 143.558V142.977L250.883 144.139Z" fill="black"/>
<path d="M211.656 157.502L209.332 158.374L211.656 159.245V159.826L208.605 158.664V158.083L211.656 156.921V157.502Z" fill="black"/>
<path d="M216.886 159.537C216.886 160.409 216.305 160.845 215.143 160.845H212.964V156.196H215.143C216.159 156.196 216.886 156.632 216.886 157.358C216.886 157.939 216.595 158.23 216.305 158.375C216.595 158.52 216.886 158.956 216.886 159.537ZM213.545 156.632V158.085H214.997C215.724 158.085 216.014 157.794 216.014 157.358C216.014 156.923 215.578 156.632 214.997 156.632H213.545ZM216.159 159.537C216.159 158.956 215.724 158.811 214.997 158.811H213.399V160.409H214.997C215.869 160.264 216.159 159.973 216.159 159.537Z" fill="black"/>
<path d="M217.611 158.52C217.611 157.068 218.627 156.051 220.08 156.051C221.533 156.051 222.549 157.068 222.549 158.52C222.549 159.973 221.533 160.99 220.08 160.99C218.627 160.844 217.611 159.828 217.611 158.52ZM221.823 158.52C221.823 157.503 221.097 156.777 219.935 156.777C218.918 156.777 218.046 157.503 218.046 158.52C218.046 159.537 218.773 160.263 219.935 160.263C221.097 160.263 221.823 159.537 221.823 158.52Z" fill="black"/>
<path d="M223.569 156.051H225.603C227.055 156.051 228.218 157.068 228.218 158.375C228.218 159.828 227.201 160.699 225.603 160.699H223.569V156.051ZM225.603 160.263C226.765 160.263 227.491 159.537 227.491 158.52C227.491 157.503 226.765 156.777 225.603 156.777H224.296V160.263H225.603Z" fill="black"/>
<path d="M230.683 159.247V160.845H230.102V159.247L228.214 156.196H228.94L230.393 158.666L231.846 156.196H232.572L230.683 159.247Z" fill="black"/>
<path d="M236.062 158.228V158.81L233.011 159.972V159.391L235.481 158.519L233.011 157.647V156.921L236.062 158.228Z" fill="black"/>
<path d="M211.656 173.626L209.332 174.498L211.656 175.369V175.95L208.605 174.788V174.353L211.656 173.19V173.626Z" fill="black"/>
<path d="M216.885 172.32V176.968H216.159V174.935H213.399V176.968H212.673V172.32H213.399V174.354H216.159V172.32H216.885Z" fill="black"/>
<path d="M219.354 172.32V176.968H218.627V172.901H217.611V172.32H219.354Z" fill="black"/>
<path d="M223.565 174.353V174.934L220.515 176.096V175.515L222.984 174.643L220.515 173.771V173.19L223.565 174.353Z" fill="black"/>
<path d="M226.621 172.32H227.056V176.678H229.671V177.114H226.475V172.32H226.621Z" fill="black"/>
<path d="M229.957 175.226C229.957 174.209 230.683 173.482 231.7 173.482C232.717 173.482 233.443 174.209 233.443 175.226C233.443 176.242 232.717 176.969 231.7 176.969C230.828 176.969 229.957 176.242 229.957 175.226ZM233.153 175.226C233.153 174.354 232.572 173.773 231.845 173.773C231.119 173.773 230.538 174.354 230.538 175.226C230.538 176.097 231.119 176.678 231.845 176.678C232.572 176.533 233.153 175.952 233.153 175.226Z" fill="black"/>
<path d="M236.349 173.337V173.773H236.204C235.477 173.773 235.042 174.208 235.042 175.08V176.823H234.606V173.337H235.042V174.063C235.332 173.627 235.768 173.337 236.349 173.337Z" fill="black"/>
<path d="M240.273 175.371H237.368C237.368 176.097 237.949 176.533 238.821 176.533C239.257 176.533 239.692 176.388 239.838 176.097L240.128 176.388C239.838 176.823 239.257 176.969 238.821 176.969C237.659 176.969 236.932 176.242 236.932 175.226C236.932 174.209 237.659 173.482 238.676 173.482C239.692 173.482 240.419 174.209 240.419 175.226C240.273 175.226 240.273 175.226 240.273 175.371ZM237.368 174.935H239.838C239.838 174.209 239.257 173.773 238.53 173.773C237.949 173.773 237.368 174.354 237.368 174.935Z" fill="black"/>
<path d="M247.102 174.935V176.968H246.666V174.935C246.666 174.208 246.231 173.773 245.65 173.773C244.923 173.773 244.487 174.208 244.487 175.08V176.968H244.052V174.935C244.052 174.208 243.616 173.773 243.035 173.773C242.309 173.773 241.873 174.208 241.873 175.08V176.968H241.437V173.482H241.873V174.063C242.163 173.627 242.599 173.337 243.18 173.337C243.761 173.337 244.197 173.627 244.487 174.063C244.778 173.627 245.214 173.337 245.94 173.337C246.521 173.337 247.102 173.918 247.102 174.935Z" fill="black"/>
<path d="M250.151 172.321C250.151 172.176 250.297 172.03 250.442 172.03C250.587 172.03 250.732 172.176 250.732 172.321C250.732 172.466 250.587 172.611 250.442 172.611C250.297 172.611 250.151 172.466 250.151 172.321ZM250.151 173.483H250.587V176.969H250.151V173.483Z" fill="black"/>
<path d="M255.525 175.226C255.525 176.243 254.798 176.969 253.782 176.969C253.201 176.969 252.765 176.678 252.474 176.243V178.276H252.038V173.483H252.474V174.209C252.765 173.773 253.201 173.483 253.782 173.483C254.798 173.337 255.525 174.064 255.525 175.226ZM255.089 175.226C255.089 174.354 254.508 173.773 253.782 173.773C253.055 173.773 252.474 174.354 252.474 175.226C252.474 176.097 253.055 176.678 253.782 176.678C254.508 176.533 255.089 175.952 255.089 175.226Z" fill="black"/>
<path d="M256.106 176.533L256.251 176.097C256.542 176.387 256.977 176.533 257.558 176.533C258.285 176.533 258.575 176.242 258.575 175.952C258.575 175.08 256.251 175.806 256.251 174.354C256.251 173.773 256.687 173.337 257.704 173.337C258.14 173.337 258.721 173.482 259.011 173.627L258.866 174.063C258.575 173.918 258.14 173.773 257.849 173.773C257.268 173.773 256.977 174.063 256.977 174.354C256.977 175.371 259.302 174.644 259.302 175.952C259.302 176.533 258.721 176.968 257.849 176.968C256.977 176.968 256.396 176.823 256.106 176.533Z" fill="black"/>
<path d="M263.08 173.482V176.969H262.644V176.388C262.354 176.823 261.918 177.114 261.337 177.114C260.465 177.114 259.884 176.678 259.884 175.661V173.628H260.32V175.661C260.32 176.388 260.756 176.823 261.337 176.823C262.063 176.823 262.499 176.388 262.499 175.516V173.628H263.08V173.482Z" fill="black"/>
<path d="M270.197 174.935V176.968H269.761V174.935C269.761 174.208 269.325 173.773 268.744 173.773C268.018 173.773 267.582 174.208 267.582 175.08V176.968H267.146V174.935C267.146 174.208 266.71 173.773 266.129 173.773C265.403 173.773 264.967 174.208 264.967 175.08V176.968H264.531V173.482H264.967V174.063C265.258 173.627 265.693 173.337 266.274 173.337C266.855 173.337 267.291 173.627 267.582 174.063C267.872 173.627 268.308 173.337 269.034 173.337C269.615 173.337 270.197 173.918 270.197 174.935Z" fill="black"/>
<path d="M276.592 172.03V176.969H276.156V176.243C275.865 176.679 275.429 176.969 274.848 176.969C273.832 176.969 273.105 176.243 273.105 175.226C273.105 174.209 273.832 173.483 274.848 173.483C275.429 173.483 275.865 173.773 276.156 174.209V172.03H276.592ZM276.01 175.226C276.01 174.354 275.429 173.773 274.703 173.773C273.977 173.773 273.396 174.354 273.396 175.226C273.396 176.098 273.977 176.679 274.703 176.679C275.429 176.533 276.01 175.952 276.01 175.226Z" fill="black"/>
<path d="M277.459 175.226C277.459 174.209 278.186 173.482 279.202 173.482C280.219 173.482 280.946 174.209 280.946 175.226C280.946 176.242 280.219 176.969 279.202 176.969C278.331 176.969 277.459 176.242 277.459 175.226ZM280.655 175.226C280.655 174.354 280.074 173.773 279.348 173.773C278.621 173.773 278.04 174.354 278.04 175.226C278.04 176.097 278.621 176.678 279.348 176.678C280.074 176.533 280.655 175.952 280.655 175.226Z" fill="black"/>
<path d="M282.106 172.03H282.542V176.969H282.106V172.03Z" fill="black"/>
<path d="M283.558 175.226C283.558 174.209 284.285 173.482 285.301 173.482C286.318 173.482 287.045 174.209 287.045 175.226C287.045 176.242 286.318 176.969 285.301 176.969C284.285 176.969 283.558 176.242 283.558 175.226ZM286.609 175.226C286.609 174.354 286.028 173.773 285.301 173.773C284.575 173.773 283.994 174.354 283.994 175.226C283.994 176.097 284.575 176.678 285.301 176.678C286.028 176.533 286.609 175.952 286.609 175.226Z" fill="black"/>
<path d="M289.954 173.337V173.773H289.809C289.083 173.773 288.647 174.208 288.647 175.08V176.823H288.211V173.337H288.647V174.063C288.792 173.627 289.228 173.337 289.954 173.337Z" fill="black"/>
<path d="M292.13 176.533L292.275 176.097C292.566 176.387 293.002 176.533 293.583 176.533C294.309 176.533 294.6 176.242 294.6 175.952C294.6 175.08 292.275 175.806 292.275 174.354C292.275 173.773 292.711 173.337 293.728 173.337C294.164 173.337 294.745 173.482 295.035 173.627L294.89 174.063C294.6 173.918 294.164 173.773 293.873 173.773C293.292 173.773 293.002 174.063 293.002 174.354C293.002 175.371 295.326 174.644 295.326 175.952C295.326 176.533 294.745 176.968 293.873 176.968C293.002 176.968 292.421 176.823 292.13 176.533Z" fill="black"/>
<path d="M295.762 172.321C295.762 172.176 295.908 172.03 296.053 172.03C296.198 172.03 296.343 172.176 296.343 172.321C296.343 172.466 296.198 172.611 296.053 172.611C295.908 172.611 295.762 172.466 295.762 172.321ZM295.908 173.483H296.343V176.969H295.908V173.483Z" fill="black"/>
<path d="M299.539 176.823C299.393 176.968 299.103 177.113 298.812 177.113C298.086 177.113 297.795 176.677 297.795 176.096V173.917H297.214V173.482H297.795V172.755H298.231V173.482H299.248V173.917H298.231V176.096C298.231 176.532 298.376 176.677 298.812 176.677C298.957 176.677 299.248 176.677 299.393 176.532L299.539 176.823Z" fill="black"/>
<path d="M304.917 174.789V176.968H304.481V176.387C304.336 176.823 303.9 176.968 303.319 176.968C302.448 176.968 302.012 176.532 302.012 175.951C302.012 175.37 302.302 174.934 303.319 174.934H304.481V174.789C304.481 174.208 304.191 173.918 303.464 173.918C303.029 173.918 302.593 174.063 302.302 174.353L302.157 174.063C302.448 173.772 303.029 173.627 303.61 173.627C304.336 173.337 304.917 173.918 304.917 174.789ZM304.336 175.951V175.37H303.174C302.448 175.37 302.302 175.661 302.302 175.951C302.302 176.387 302.593 176.678 303.174 176.678C303.755 176.678 304.191 176.387 304.336 175.951Z" fill="black"/>
<path d="M312.03 174.935V176.968H311.449V174.935C311.449 174.208 311.013 173.773 310.432 173.773C309.706 173.773 309.27 174.208 309.27 175.08V176.968H308.834V174.935C308.834 174.208 308.398 173.773 307.817 173.773C307.091 173.773 306.655 174.208 306.655 175.08V176.968H306.219V173.482H306.655V174.063C306.946 173.627 307.382 173.337 307.963 173.337C308.544 173.337 308.979 173.627 309.27 174.063C309.56 173.627 309.996 173.337 310.723 173.337C311.449 173.337 312.03 173.918 312.03 174.935Z" fill="black"/>
<path d="M316.392 175.371H313.486C313.486 176.097 314.067 176.533 314.939 176.533C315.375 176.533 315.811 176.388 315.956 176.097L316.246 176.388C315.956 176.823 315.375 176.969 314.939 176.969C313.777 176.969 313.051 176.242 313.051 175.226C313.051 174.209 313.777 173.482 314.794 173.482C315.81 173.482 316.537 174.209 316.537 175.226C316.392 175.226 316.392 175.226 316.392 175.371ZM313.486 174.935H315.956C315.956 174.209 315.375 173.773 314.648 173.773C313.922 173.773 313.486 174.354 313.486 174.935Z" fill="black"/>
<path d="M319.296 176.823C319.15 176.968 318.86 177.113 318.569 177.113C317.843 177.113 317.553 176.677 317.553 176.096V173.917H316.971V173.482H317.553V172.755H317.988V173.482H319.005V173.917H317.988V176.096C317.988 176.532 318.134 176.677 318.569 176.677C318.715 176.677 319.005 176.677 319.15 176.532L319.296 176.823Z" fill="black"/>
<path d="M320.602 176.679C320.602 176.824 320.602 176.824 320.457 177.115L320.166 177.986H319.875L320.166 176.969C320.021 176.969 319.875 176.824 319.875 176.679C319.875 176.534 320.021 176.243 320.166 176.243C320.457 176.243 320.602 176.388 320.602 176.679Z" fill="black"/>
<path d="M322.922 175.226C322.922 174.209 323.648 173.482 324.81 173.482C325.391 173.482 325.972 173.773 326.263 174.209L325.972 174.499C325.682 174.209 325.391 173.918 324.956 173.918C324.229 173.918 323.648 174.499 323.648 175.371C323.648 176.242 324.229 176.823 324.956 176.823C325.391 176.823 325.682 176.678 325.972 176.242L326.263 176.533C325.972 176.969 325.537 177.259 324.81 177.259C323.794 176.969 322.922 176.242 322.922 175.226Z" fill="black"/>
<path d="M326.705 175.226C326.705 174.209 327.431 173.482 328.448 173.482C329.465 173.482 330.191 174.209 330.191 175.226C330.191 176.242 329.465 176.969 328.448 176.969C327.431 176.969 326.705 176.242 326.705 175.226ZM329.9 175.226C329.9 174.354 329.319 173.773 328.593 173.773C327.867 173.773 327.286 174.354 327.286 175.226C327.286 176.097 327.867 176.678 328.593 176.678C329.319 176.533 329.9 175.952 329.9 175.226Z" fill="black"/>
<path d="M334.547 174.934V176.967H334.111V174.934C334.111 174.207 333.676 173.772 333.095 173.772C332.368 173.772 331.787 174.207 331.787 175.079V176.967H331.351V173.481H331.787V174.207C332.078 173.772 332.514 173.481 333.095 173.481C333.966 173.336 334.547 173.917 334.547 174.934Z" fill="black"/>
<path d="M335.421 176.533L335.566 176.097C335.857 176.387 336.292 176.533 336.873 176.533C337.6 176.533 337.89 176.242 337.89 175.952C337.89 175.08 335.566 175.806 335.566 174.354C335.566 173.773 336.002 173.337 337.019 173.337C337.455 173.337 338.036 173.482 338.326 173.627L338.181 174.063C337.89 173.918 337.455 173.773 337.164 173.773C336.583 173.773 336.292 174.063 336.292 174.354C336.292 175.371 338.617 174.644 338.617 175.952C338.617 176.533 338.036 176.968 337.164 176.968C336.292 176.968 335.711 176.823 335.421 176.533Z" fill="black"/>
<path d="M342.246 175.371H339.34C339.34 176.097 339.921 176.533 340.793 176.533C341.229 176.533 341.664 176.388 341.81 176.097L342.1 176.388C341.81 176.823 341.229 176.969 340.793 176.969C339.631 176.969 338.904 176.242 338.904 175.226C338.904 174.209 339.631 173.482 340.648 173.482C341.664 173.482 342.391 174.209 342.391 175.226C342.245 175.226 342.246 175.226 342.246 175.371ZM339.34 174.935H341.81C341.81 174.209 341.229 173.773 340.502 173.773C339.776 173.773 339.34 174.354 339.34 174.935Z" fill="black"/>
<path d="M342.827 175.226C342.827 174.209 343.554 173.482 344.716 173.482C345.297 173.482 345.878 173.773 346.168 174.209L345.878 174.499C345.587 174.209 345.297 173.918 344.861 173.918C344.135 173.918 343.554 174.499 343.554 175.371C343.554 176.242 344.135 176.823 344.861 176.823C345.297 176.823 345.587 176.678 345.878 176.242L346.168 176.533C345.878 176.969 345.442 177.259 344.716 177.259C343.699 176.969 342.827 176.242 342.827 175.226Z" fill="black"/>
<path d="M348.93 176.823C348.785 176.968 348.494 177.113 348.204 177.113C347.478 177.113 347.187 176.677 347.187 176.096V173.917H346.606V173.482H347.187V172.755H347.623V173.482H348.64V173.917H347.623V176.096C347.623 176.532 347.768 176.677 348.204 176.677C348.349 176.677 348.64 176.677 348.785 176.532L348.93 176.823Z" fill="black"/>
<path d="M352.707 175.371H349.801C349.801 176.097 350.382 176.533 351.254 176.533C351.69 176.533 352.126 176.388 352.271 176.097L352.561 176.388C352.271 176.823 351.69 176.969 351.254 176.969C350.092 176.969 349.366 176.242 349.366 175.226C349.366 174.209 350.092 173.482 351.109 173.482C352.126 173.482 352.852 174.209 352.852 175.226C352.707 175.226 352.707 175.226 352.707 175.371ZM349.801 174.935H352.271C352.271 174.209 351.69 173.773 350.964 173.773C350.383 173.773 349.801 174.354 349.801 174.935Z" fill="black"/>
<path d="M355.609 176.823C355.463 176.968 355.173 177.113 354.882 177.113C354.156 177.113 353.866 176.677 353.866 176.096V173.917H353.285V173.482H353.866V172.755H354.301V173.482H355.318V173.917H354.301V176.096C354.301 176.532 354.447 176.677 354.882 176.677C355.028 176.677 355.318 176.677 355.463 176.532L355.609 176.823Z" fill="black"/>
<path d="M359.681 173.482V176.969H359.246V176.388C358.955 176.823 358.519 177.114 357.938 177.114C357.067 177.114 356.486 176.678 356.486 175.661V173.628H356.921V175.661C356.921 176.388 357.357 176.823 357.938 176.823C358.664 176.823 359.1 176.388 359.1 175.516V173.628H359.681V173.482Z" fill="black"/>
<path d="M364.036 175.371H361.131C361.131 176.097 361.712 176.533 362.584 176.533C363.019 176.533 363.455 176.388 363.6 176.097L363.891 176.388C363.601 176.823 363.019 176.969 362.584 176.969C361.422 176.969 360.695 176.242 360.695 175.226C360.695 174.209 361.422 173.482 362.438 173.482C363.455 173.482 364.182 174.209 364.182 175.226C364.036 175.226 364.036 175.226 364.036 175.371ZM361.131 174.935H363.6C363.6 174.209 363.019 173.773 362.293 173.773C361.712 173.773 361.131 174.354 361.131 174.935Z" fill="black"/>
<path d="M366.794 173.337V173.773H366.649C365.923 173.773 365.487 174.208 365.487 175.08V176.823H365.051V173.337H365.487V174.063C365.778 173.627 366.213 173.337 366.794 173.337Z" fill="black"/>
<path d="M211.511 182.781V184.959H211.075V184.524C210.93 184.959 210.494 185.105 209.913 185.105C209.041 185.105 208.605 184.669 208.605 184.088C208.605 183.507 208.896 183.071 209.913 183.071H211.075V182.926C211.075 182.345 210.784 182.054 210.058 182.054C209.622 182.054 209.186 182.199 208.896 182.49L208.751 182.199C209.041 181.909 209.622 181.764 210.203 181.764C211.075 181.473 211.511 181.909 211.511 182.781ZM211.075 183.943V183.362H209.913C209.187 183.362 209.041 183.652 209.041 183.943C209.041 184.378 209.332 184.669 209.913 184.669C210.494 184.669 210.93 184.378 211.075 183.943Z" fill="black"/>
<path d="M216.156 180.019V184.957H215.575V184.231C215.284 184.667 214.849 184.957 214.268 184.957C213.251 184.957 212.524 184.231 212.524 183.214C212.524 182.198 213.251 181.471 214.268 181.471C214.849 181.471 215.284 181.762 215.575 182.197V180.019H216.156ZM215.575 183.214C215.575 182.343 214.994 181.762 214.268 181.762C213.541 181.762 212.96 182.343 212.96 183.214C212.96 184.086 213.541 184.667 214.268 184.667C214.994 184.667 215.575 184.086 215.575 183.214Z" fill="black"/>
<path d="M217.32 180.309C217.32 180.164 217.465 180.019 217.61 180.019C217.755 180.019 217.901 180.164 217.901 180.309C217.901 180.454 217.755 180.6 217.61 180.6C217.465 180.745 217.32 180.6 217.32 180.309ZM217.465 181.471H217.901V184.957H217.465V181.471Z" fill="black"/>
<path d="M222.842 183.214C222.842 184.231 222.115 184.957 221.099 184.957C220.517 184.957 220.082 184.666 219.791 184.231V186.264H219.355V181.471H219.791V182.197C220.082 181.761 220.517 181.471 221.099 181.471C222.115 181.471 222.842 182.197 222.842 183.214ZM222.406 183.214C222.406 182.342 221.825 181.761 221.099 181.761C220.372 181.761 219.791 182.342 219.791 183.214C219.791 184.085 220.372 184.666 221.099 184.666C221.825 184.666 222.406 184.085 222.406 183.214Z" fill="black"/>
<path d="M223.714 180.309C223.714 180.164 223.859 180.019 224.004 180.019C224.149 180.019 224.295 180.164 224.295 180.309C224.295 180.454 224.149 180.6 224.004 180.6C223.859 180.745 223.714 180.6 223.714 180.309ZM223.859 181.471H224.295V184.957H223.859V181.471Z" fill="black"/>
<path d="M225.166 184.666L225.311 184.231C225.601 184.521 226.037 184.666 226.618 184.666C227.345 184.666 227.635 184.376 227.635 184.085C227.635 183.214 225.311 183.94 225.311 182.488C225.311 181.907 225.747 181.471 226.763 181.471C227.199 181.471 227.78 181.616 228.071 181.761L227.926 182.197C227.635 182.052 227.199 181.906 226.909 181.906C226.328 181.906 226.037 182.197 226.037 182.488C226.037 183.504 228.361 182.778 228.361 184.085C228.361 184.666 227.78 185.102 226.909 185.102C226.037 185.102 225.456 184.957 225.166 184.666Z" fill="black"/>
<path d="M228.507 183.214C228.507 182.197 229.233 181.471 230.395 181.471C230.976 181.471 231.557 181.761 231.848 182.197L231.557 182.488C231.267 182.197 230.976 181.906 230.541 181.906C229.814 181.906 229.233 182.488 229.233 183.359C229.233 184.231 229.814 184.812 230.541 184.812C230.976 184.812 231.267 184.666 231.557 184.231L231.848 184.521C231.557 184.957 231.122 185.248 230.395 185.248C229.378 185.102 228.507 184.376 228.507 183.214Z" fill="black"/>
<path d="M232.574 180.309C232.574 180.164 232.72 180.019 232.865 180.019C233.01 180.019 233.155 180.164 233.155 180.309C233.155 180.454 233.01 180.6 232.865 180.6C232.72 180.745 232.574 180.6 232.574 180.309ZM232.72 181.471H233.155V184.957H232.72V181.471Z" fill="black"/>
<path d="M237.805 182.923V184.957H237.369V183.068C237.369 182.342 236.933 181.906 236.352 181.906C235.626 181.906 235.045 182.342 235.045 183.214V185.102H234.464V181.616H234.899V182.342C235.19 181.906 235.626 181.616 236.207 181.616C237.224 181.471 237.805 181.906 237.805 182.923Z" fill="black"/>
<path d="M242.308 181.472V184.523C242.308 185.685 241.727 186.266 240.565 186.266C239.984 186.266 239.257 186.121 238.967 185.685L239.257 185.249C239.548 185.54 240.129 185.685 240.71 185.685C241.582 185.685 242.017 185.249 242.017 184.378V183.942C241.727 184.378 241.146 184.668 240.565 184.668C239.548 184.668 238.822 183.942 238.822 182.925C238.822 181.908 239.548 181.182 240.565 181.182C241.146 181.182 241.727 181.472 242.017 181.908V181.182H242.308V181.472ZM241.872 183.216C241.872 182.489 241.291 181.908 240.565 181.908C239.839 181.908 239.257 182.489 239.257 183.216C239.257 183.942 239.839 184.523 240.565 184.523C241.291 184.523 241.872 183.942 241.872 183.216Z" fill="black"/>
<path d="M248.55 183.359H245.645C245.645 184.085 246.226 184.521 247.098 184.521C247.534 184.521 247.969 184.376 248.115 184.085L248.405 184.376C248.115 184.812 247.534 184.957 247.098 184.957C245.936 184.957 245.209 184.231 245.209 183.214C245.209 182.197 245.936 181.471 246.953 181.471C247.969 181.471 248.696 182.197 248.696 183.214C248.55 183.359 248.55 183.359 248.55 183.359ZM245.5 183.069H247.969C247.969 182.342 247.388 181.906 246.662 181.906C246.081 181.906 245.645 182.342 245.5 183.069Z" fill="black"/>
<path d="M249.568 180.019H250.003V184.957H249.568V180.019Z" fill="black"/>
<path d="M251.168 180.309C251.168 180.164 251.313 180.019 251.459 180.019C251.604 180.019 251.749 180.164 251.749 180.309C251.749 180.454 251.604 180.6 251.459 180.6C251.313 180.745 251.168 180.6 251.168 180.309ZM251.313 181.471H251.749V184.957H251.313V181.471Z" fill="black"/>
<path d="M254.946 184.812C254.801 184.957 254.511 185.102 254.22 185.102C253.494 185.102 253.203 184.667 253.203 184.086V181.907H252.622V181.471H253.203V180.745H253.639V181.471H254.656V181.907H253.639V184.086C253.639 184.521 253.784 184.667 254.22 184.667C254.365 184.667 254.656 184.667 254.801 184.521L254.946 184.812Z" fill="black"/>
<path d="M256.399 184.668C256.399 184.813 256.399 184.813 256.254 185.104L255.963 185.976H255.673L255.963 184.959C255.818 184.959 255.673 184.813 255.673 184.668C255.673 184.523 255.818 184.232 255.963 184.232C256.254 184.378 256.399 184.523 256.399 184.668Z" fill="black"/>
<path d="M258.577 184.666L258.722 184.231C259.013 184.521 259.448 184.666 260.029 184.666C260.756 184.666 261.046 184.376 261.046 184.085C261.046 183.214 258.722 183.94 258.722 182.488C258.722 181.907 259.158 181.471 260.175 181.471C260.61 181.471 261.191 181.616 261.482 181.761L261.337 182.197C261.046 182.052 260.61 181.906 260.32 181.906C259.739 181.906 259.448 182.197 259.448 182.488C259.448 183.504 261.772 182.778 261.772 184.085C261.772 184.666 261.191 185.102 260.32 185.102C259.448 185.102 258.867 184.957 258.577 184.666Z" fill="black"/>
<path d="M265.55 183.359H262.645C262.645 184.085 263.226 184.521 264.097 184.521C264.533 184.521 264.969 184.376 265.114 184.085L265.405 184.376C265.114 184.812 264.533 184.957 264.097 184.957C262.935 184.957 262.209 184.231 262.209 183.214C262.209 182.197 262.935 181.471 263.952 181.471C264.969 181.471 265.695 182.197 265.695 183.214C265.55 183.359 265.55 183.359 265.55 183.359ZM262.499 183.069H264.969C264.969 182.342 264.388 181.906 263.661 181.906C263.08 181.906 262.645 182.342 262.499 183.069Z" fill="black"/>
<path d="M269.758 180.019V184.957H269.323V184.231C269.032 184.667 268.596 184.957 268.015 184.957C266.998 184.957 266.272 184.231 266.272 183.214C266.272 182.198 266.998 181.471 268.015 181.471C268.596 181.471 269.032 181.762 269.323 182.197V180.019H269.758ZM269.177 183.214C269.177 182.343 268.596 181.762 267.87 181.762C267.144 181.762 266.563 182.343 266.563 183.214C266.563 184.086 267.144 184.667 267.87 184.667C268.742 184.667 269.177 184.086 269.177 183.214Z" fill="black"/>
<path d="M276.008 180.019V184.957H275.572V184.231C275.281 184.667 274.846 184.957 274.265 184.957C273.248 184.957 272.522 184.231 272.522 183.214C272.522 182.198 273.248 181.471 274.265 181.471C274.846 181.471 275.281 181.762 275.572 182.197V180.019H276.008ZM275.572 183.214C275.572 182.343 274.991 181.762 274.265 181.762C273.538 181.762 272.957 182.343 272.957 183.214C272.957 184.086 273.538 184.667 274.265 184.667C274.991 184.667 275.572 184.086 275.572 183.214Z" fill="black"/>
<path d="M277.317 180.309C277.317 180.164 277.462 180.019 277.607 180.019C277.753 180.019 277.898 180.164 277.898 180.309C277.898 180.454 277.753 180.6 277.607 180.6C277.462 180.745 277.317 180.6 277.317 180.309ZM277.317 181.471H277.753V184.957H277.317V181.471Z" fill="black"/>
<path d="M281.817 182.781V184.959H281.381V184.524C281.236 184.959 280.8 185.105 280.219 185.105C279.347 185.105 278.911 184.669 278.911 184.088C278.911 183.507 279.202 183.071 280.219 183.071H281.381V182.926C281.381 182.345 281.09 182.054 280.364 182.054C279.928 182.054 279.492 182.199 279.202 182.49L279.057 182.199C279.347 181.909 279.928 181.764 280.509 181.764C281.381 181.473 281.817 181.909 281.817 182.781ZM281.381 183.943V183.362H280.219C279.492 183.362 279.347 183.652 279.347 183.943C279.347 184.378 279.638 184.669 280.219 184.669C280.8 184.669 281.236 184.378 281.381 183.943Z" fill="black"/>
<path d="M289.079 182.923V184.957H288.643V183.069C288.643 182.342 288.208 181.906 287.626 181.906C286.9 181.906 286.464 182.342 286.464 183.214V185.102H286.029V183.069C286.029 182.342 285.593 181.906 285.012 181.906C284.285 181.906 283.85 182.342 283.85 183.214V185.102H283.414V181.616H283.85V182.197C284.14 181.761 284.576 181.471 285.157 181.471C285.738 181.471 286.174 181.761 286.464 182.197C286.755 181.761 287.191 181.471 287.917 181.471C288.498 181.471 289.079 181.906 289.079 182.923Z" fill="black"/>
<path d="M293.149 181.763L290.825 182.635L293.149 183.506V184.087L290.099 182.925V182.344L293.149 181.182V181.763Z" fill="black"/>
<path d="M295.617 179.438H296.198L294.019 185.83H293.438L295.617 179.438Z" fill="black"/>
<path d="M300.701 180.309V184.958H299.975V182.924H297.215V184.958H296.488V180.309H297.215V182.343H299.975V180.309H300.701Z" fill="black"/>
<path d="M303.169 180.309V184.958H302.443V180.89H301.426V180.309H303.169Z" fill="black"/>
<path d="M307.385 182.344V182.925L304.334 184.087V183.506L306.804 182.635L304.334 181.763V181.182L307.385 182.344Z" fill="black"/>
<path d="M211.656 197.887L209.332 198.758L211.656 199.63V200.211L208.605 199.049V198.468L211.656 197.306V197.887Z" fill="black"/>
<path d="M216.595 198.177C216.595 199.194 215.869 199.775 214.561 199.775H213.399V201.227H212.673V196.579H214.561C215.869 196.434 216.595 197.16 216.595 198.177ZM216.014 198.177C216.014 197.45 215.578 197.16 214.706 197.16H213.544V199.339H214.706C215.578 199.194 216.014 198.758 216.014 198.177Z" fill="black"/>
<path d="M220.517 198.612V199.193L217.466 200.355V199.774L219.936 198.903L217.466 198.031V197.45L220.517 198.612Z" fill="black"/>
<path d="M226.182 197.887L223.858 198.758L226.182 199.63V200.211L223.132 199.049V198.468L226.182 197.306V197.887Z" fill="black"/>
<path d="M227.346 196.434H228.072V201.083H227.346V196.434Z" fill="black"/>
<path d="M233.737 201.228V197.742L231.994 200.647H231.704L229.96 197.742V201.228H229.379V196.58H229.96L231.994 199.921L233.883 196.58H234.464V201.228H233.737Z" fill="black"/>
<path d="M239.11 198.758H239.691V200.647C239.255 201.082 238.529 201.228 237.948 201.228C236.495 201.228 235.478 200.211 235.478 198.758C235.478 197.306 236.495 196.289 237.948 196.289C238.674 196.289 239.4 196.579 239.691 197.015L239.255 197.451C238.819 197.015 238.384 196.87 237.948 196.87C236.786 196.87 236.059 197.596 236.059 198.613C236.059 199.63 236.786 200.356 237.948 200.356C238.384 200.356 238.674 200.211 239.11 200.066V198.758Z" fill="black"/>
<path d="M242.454 200.647L242.744 200.066C243.035 200.356 243.761 200.647 244.342 200.647C245.214 200.647 245.504 200.356 245.504 199.921C245.504 198.759 242.599 199.485 242.599 197.742C242.599 197.015 243.18 196.434 244.342 196.434C244.923 196.434 245.504 196.58 245.795 196.87L245.504 197.451C245.069 197.161 244.633 197.015 244.197 197.015C243.325 197.015 243.035 197.306 243.035 197.742C243.035 198.904 245.94 198.177 245.94 199.921C245.94 200.647 245.359 201.228 244.052 201.228C243.471 201.228 242.744 201.083 242.454 200.647Z" fill="black"/>
<path d="M250.15 201.228L249.133 199.776C248.988 199.776 248.988 199.776 248.843 199.776H247.681V201.228H246.954V196.58H248.843C250.005 196.58 250.876 197.161 250.876 198.178C250.876 198.904 250.441 199.485 249.86 199.63L251.022 201.228H250.15ZM250.15 198.178C250.15 197.451 249.714 197.161 248.843 197.161H247.681V199.34H248.843C249.714 199.195 250.15 198.759 250.15 198.178Z" fill="black"/>
<path d="M251.599 198.904C251.599 197.451 252.616 196.434 254.069 196.434C254.795 196.434 255.376 196.725 255.812 197.161L255.376 197.596C254.94 197.161 254.504 197.015 254.069 197.015C253.052 197.015 252.18 197.742 252.18 198.759C252.18 199.775 252.907 200.502 254.069 200.502C254.65 200.502 255.085 200.356 255.376 199.921L255.812 200.356C255.376 200.792 254.795 201.083 254.069 201.083C252.616 201.228 251.599 200.211 251.599 198.904Z" fill="black"/>
<path d="M256.541 197.742H259.591V198.323H256.541V197.742ZM256.541 199.34H259.591V199.921H256.541V199.34Z" fill="black"/>
<path d="M262.209 196.434H262.79V198.323H262.354L262.209 196.434ZM263.516 196.434H264.097V198.323H263.516V196.434Z" fill="black"/>
<path d="M265.115 196.434H265.841V200.502H268.456V201.083H265.26V196.434H265.115Z" fill="black"/>
<path d="M268.743 199.484C268.743 198.467 269.469 197.595 270.631 197.595C271.648 197.595 272.52 198.322 272.52 199.484C272.52 200.501 271.794 201.372 270.631 201.372C269.469 201.227 268.743 200.501 268.743 199.484ZM271.794 199.484C271.794 198.758 271.212 198.176 270.631 198.176C269.905 198.176 269.469 198.612 269.469 199.484C269.469 200.21 270.05 200.791 270.631 200.791C271.212 200.646 271.794 200.21 271.794 199.484Z" fill="black"/>
<path d="M275.282 197.595V198.176H275.137C274.411 198.176 273.975 198.612 273.975 199.339V201.082H273.394V197.595H273.975V198.176C274.12 197.741 274.556 197.595 275.282 197.595Z" fill="black"/>
<path d="M279.202 199.629H276.296C276.442 200.21 276.877 200.646 277.604 200.646C278.04 200.646 278.33 200.501 278.621 200.21L278.911 200.646C278.621 201.082 278.04 201.227 277.459 201.227C276.296 201.227 275.57 200.501 275.57 199.339C275.57 198.322 276.296 197.45 277.313 197.45C278.33 197.45 279.056 198.177 279.056 199.339C279.202 199.484 279.202 199.629 279.202 199.629ZM276.296 199.193H278.621C278.621 198.612 278.04 198.177 277.459 198.177C276.877 198.177 276.296 198.612 276.296 199.193Z" fill="black"/>
<path d="M286.031 199.193V201.227H285.304V199.193C285.304 198.467 285.014 198.176 284.433 198.176C283.852 198.176 283.416 198.612 283.416 199.339V201.227H282.835V199.193C282.835 198.467 282.544 198.176 281.963 198.176C281.382 198.176 280.946 198.612 280.946 199.339V201.227H280.365V197.595H280.946V198.176C281.237 197.741 281.673 197.595 282.109 197.595C282.69 197.595 283.125 197.741 283.416 198.322C283.706 197.886 284.142 197.595 284.723 197.595C285.45 197.595 286.031 198.031 286.031 199.193Z" fill="black"/>
<path d="M288.935 196.578C288.935 196.288 289.081 196.143 289.371 196.143C289.662 196.143 289.807 196.288 289.807 196.578C289.807 196.869 289.662 197.014 289.371 197.014C289.081 196.869 288.935 196.724 288.935 196.578ZM289.081 197.595H289.662V201.227H289.081V197.595Z" fill="black"/>
<path d="M294.598 199.484C294.598 200.646 293.872 201.372 292.855 201.372C292.42 201.372 291.838 201.227 291.548 200.791V202.68H290.967V197.595H291.548V198.176C291.838 197.741 292.274 197.595 292.855 197.595C293.872 197.595 294.598 198.322 294.598 199.484ZM293.872 199.484C293.872 198.758 293.291 198.176 292.71 198.176C291.984 198.176 291.548 198.612 291.548 199.484C291.548 200.21 292.129 200.791 292.71 200.791C293.436 200.646 293.872 200.21 293.872 199.484Z" fill="black"/>
<path d="M295.036 200.791L295.327 200.21C295.617 200.355 296.053 200.646 296.634 200.646C297.215 200.646 297.506 200.501 297.506 200.21C297.506 199.339 295.181 200.065 295.181 198.612C295.181 198.031 295.763 197.595 296.634 197.595C297.07 197.595 297.651 197.741 297.941 197.886L297.651 198.467C297.36 198.322 296.925 198.176 296.634 198.176C296.053 198.176 295.763 198.322 295.763 198.612C295.763 199.484 298.087 198.758 298.087 200.21C298.087 200.791 297.506 201.227 296.489 201.227C295.908 201.227 295.327 201.082 295.036 200.791Z" fill="black"/>
<path d="M302.154 197.595V201.227H301.573V200.646C301.282 201.082 300.846 201.227 300.411 201.227C299.539 201.227 298.813 200.791 298.813 199.629V197.595H299.394V199.629C299.394 200.355 299.684 200.646 300.411 200.646C301.137 200.646 301.573 200.21 301.573 199.484V197.595H302.154Z" fill="black"/>
<path d="M309.273 199.193V201.227H308.691V199.193C308.691 198.467 308.401 198.176 307.82 198.176C307.239 198.176 306.803 198.612 306.803 199.339V201.227H306.222V199.193C306.222 198.467 305.931 198.176 305.35 198.176C304.769 198.176 304.334 198.612 304.334 199.339V201.227H303.753V197.595H304.334V198.176C304.624 197.741 305.06 197.595 305.496 197.595C306.077 197.595 306.513 197.741 306.803 198.322C307.094 197.886 307.529 197.595 308.11 197.595C308.691 197.595 309.273 198.031 309.273 199.193Z" fill="black"/>
<path d="M310.289 196.434H310.87V198.323H310.434L310.289 196.434ZM311.596 196.434H312.177V198.323H311.741L311.596 196.434Z" fill="black"/>
<path d="M315.955 198.612V199.193L312.904 200.355V199.774L315.374 198.903L312.904 198.031V197.45L315.955 198.612Z" fill="black"/>
<path d="M319.875 197.887L317.551 198.758L319.875 199.63V200.211L316.825 199.049V198.468L319.875 197.306V197.887Z" fill="black"/>
<path d="M322.491 195.563H323.072L320.893 201.955H320.166L322.491 195.563Z" fill="black"/>
<path d="M327.283 198.177C327.283 199.194 326.557 199.775 325.25 199.775H324.088V201.227H323.361V196.579H325.25C326.557 196.434 327.283 197.16 327.283 198.177ZM326.557 198.177C326.557 197.45 326.121 197.16 325.25 197.16H324.088V199.339H325.25C326.121 199.194 326.557 198.758 326.557 198.177Z" fill="black"/>
<path d="M331.059 198.612V199.193L328.008 200.355V199.774L330.478 198.903L328.008 198.031V197.45L331.059 198.612Z" fill="black"/>
<path d="M211.656 214.01L209.332 214.881L211.656 215.753V216.334L208.605 215.172V214.591L211.656 213.429V214.01Z" fill="black"/>
<path d="M214.128 211.686H214.709L212.53 218.077H211.949L214.128 211.686Z" fill="black"/>
<path d="M219.21 216.044C219.21 216.915 218.629 217.351 217.467 217.351H215.288V212.703H217.467C218.484 212.703 219.21 213.138 219.21 213.865C219.21 214.446 218.92 214.736 218.629 214.882C218.92 215.027 219.21 215.463 219.21 216.044ZM215.869 213.138V214.591H217.322C218.048 214.591 218.339 214.301 218.339 213.865C218.339 213.429 217.903 213.138 217.322 213.138H215.869ZM218.629 216.044C218.629 215.463 218.193 215.317 217.467 215.317H215.869V216.915H217.467C218.193 216.77 218.629 216.625 218.629 216.044Z" fill="black"/>
<path d="M219.937 215.028C219.937 213.575 220.954 212.558 222.407 212.558C223.859 212.558 224.876 213.575 224.876 215.028C224.876 216.48 223.859 217.497 222.407 217.497C220.954 217.352 219.937 216.335 219.937 215.028ZM224.295 215.028C224.295 214.011 223.569 213.285 222.407 213.285C221.39 213.285 220.518 214.011 220.518 215.028C220.518 216.045 221.244 216.771 222.407 216.771C223.423 216.771 224.295 216.045 224.295 215.028Z" fill="black"/>
<path d="M225.892 212.703H227.925C229.378 212.703 230.54 213.719 230.54 215.027C230.54 216.334 229.523 217.351 227.925 217.351H225.892V212.703ZM227.925 216.77C229.087 216.77 229.814 216.044 229.814 215.027C229.814 214.01 229.087 213.284 227.925 213.284H226.618V216.77H227.925Z" fill="black"/>
<path d="M233.155 215.753V217.351H232.429V215.753L230.541 212.703H231.267L232.72 215.172L234.172 212.703H234.898L233.155 215.753Z" fill="black"/>
<path d="M238.384 214.736V215.317L235.334 216.479V215.898L237.803 215.027L235.334 214.155V213.574L238.384 214.736Z" fill="black"/>
<path d="M550.906 40H478.14C475.378 40 473.14 42.2386 473.14 45V93.8995C473.14 96.661 475.378 98.8995 478.14 98.8995H550.906C553.667 98.8995 555.906 96.661 555.906 93.8995V45C555.906 42.2386 553.667 40 550.906 40Z" fill="#A0B3F2"/>
<path d="M556.465 48.6541C556.465 48.7936 537.762 49.0728 514.733 49.0728C491.703 49.0728 473.001 48.9332 473.001 48.6541C473.001 48.5145 491.703 48.2354 514.733 48.2354C537.762 48.3749 556.465 48.5145 556.465 48.6541Z" fill="white"/>
<path d="M479.841 44.4653C479.841 45.0236 479.283 45.4423 478.725 45.4423C478.166 45.4423 477.608 45.0236 477.608 44.4653C477.608 43.907 478.166 43.4883 478.725 43.4883C479.422 43.4883 479.841 43.907 479.841 44.4653Z" fill="white"/>
<path d="M483.888 44.4663C483.888 45.0246 483.33 45.4433 482.771 45.4433C482.213 45.4433 481.655 45.0246 481.655 44.4663C481.655 43.908 482.213 43.4893 482.771 43.4893C483.33 43.4893 483.888 43.908 483.888 44.4663Z" fill="white"/>
<path d="M486.819 45.4433C487.436 45.4433 487.935 45.0059 487.935 44.4663C487.935 43.9267 487.436 43.4893 486.819 43.4893C486.202 43.4893 485.702 43.9267 485.702 44.4663C485.702 45.0059 486.202 45.4433 486.819 45.4433Z" fill="white"/>
<path d="M503.705 72.2408C503.705 75.7301 501.193 77.9632 496.866 77.9632H492.4V83.267H490.586V66.5183H496.866C501.054 66.5183 503.705 68.6119 503.705 72.2408ZM501.891 72.2408C501.891 69.5889 500.077 68.0536 496.866 68.0536H492.4V76.4279H496.866C500.216 76.2884 501.891 74.8927 501.891 72.2408Z" fill="white"/>
<path d="M521.432 66.5176V83.1267H519.757V75.4502H509.289V83.1267H507.474V66.5176H509.289V73.9149H519.757V66.5176H521.432Z" fill="white"/>
<path d="M539.857 72.241C539.857 75.7303 537.345 77.9635 533.018 77.9635H528.552V83.2672H526.738V66.5186H533.018C537.206 66.5186 539.857 68.6121 539.857 72.241ZM538.043 72.241C538.043 69.5891 536.229 68.0538 533.018 68.0538H528.552V76.4282H533.018C536.229 76.2886 538.043 74.8929 538.043 72.241Z" fill="white"/>
<path d="M481.428 300.999L447.656 415.125C446.103 420.171 441.445 423.665 436.269 423.665L299.111 424.053C291.865 424.053 286.043 417.971 286.431 410.725C286.819 403.997 292.383 398.692 299.111 398.692H351.516L393.569 281.719H467.065C477.028 281.719 484.274 291.424 481.428 300.999Z" fill="#555C6C"/>
<path d="M365.359 408.137C365.359 408.396 379.334 408.655 396.543 408.655C413.752 408.655 427.727 408.396 427.727 408.137C427.727 407.878 413.752 407.619 396.543 407.619C379.334 407.619 365.359 407.878 365.359 408.137Z" fill="#0C162C"/>
<path d="M471.334 285.343C471.075 285.213 461.759 312.516 450.501 346.417C439.244 380.189 430.316 407.62 430.575 407.75C430.833 407.879 440.15 380.577 451.407 346.676C462.664 312.904 471.593 285.343 471.334 285.343Z" fill="#0C162C"/>
<path d="M371.051 525.11L379.333 524.851V423.665H371.051V525.11Z" fill="#555C6C"/>
<path d="M414 525H336L371.373 513H379.665L414 525Z" fill="#555C6C"/>
<path d="M433.811 255.452L421.001 319.761L423.33 368.025L336.766 353.662L340.13 311.48L340.259 276.543L319.039 317.691L302.476 285.73L332.754 230.997C338.318 225.303 344.788 221.033 352.552 218.187C356.304 216.763 360.315 215.987 364.973 215.858C374.937 218.963 384.9 218.963 394.993 215.858C396.157 215.987 397.84 216.116 400.039 216.375C400.169 216.375 400.298 216.375 400.427 216.375C418.801 218.575 432.776 233.843 433.811 252.347V255.452Z" fill="#6084FD"/>
<path d="M399.779 216.376C399.779 216.376 435.363 216.635 439.762 254.16L440.409 281.72L409.743 281.462L399.779 216.376Z" fill="#6084FD"/>
<path d="M314.897 264.641C314.897 264.9 342.846 265.158 377.394 265.158C411.942 265.158 439.891 264.9 439.891 264.641C439.891 264.382 411.942 264.123 377.394 264.123C342.846 264.123 314.897 264.382 314.897 264.641Z" fill="#FAFAFA"/>
<path d="M314.897 270.592C314.897 270.851 342.846 271.109 377.394 271.109C411.942 271.109 439.891 270.851 439.891 270.592C439.891 270.333 411.942 270.074 377.394 270.074C342.846 270.074 314.897 270.333 314.897 270.592Z" fill="#FAFAFA"/>
<path d="M316.837 259.723C316.837 259.982 344.398 260.24 378.299 260.24C412.2 260.24 439.761 259.982 439.761 259.723C439.761 259.464 412.2 259.205 378.299 259.205C344.398 259.205 316.837 259.464 316.837 259.723Z" fill="#FAFAFA"/>
<path d="M340.647 317.693C340.905 317.693 340.776 302.424 340.388 283.662C340 264.9 339.482 249.631 339.094 249.631C338.835 249.631 338.964 264.9 339.353 283.662C339.741 302.424 340.388 317.693 340.647 317.693Z" fill="#0C162C"/>
<path d="M352.807 292.979C352.807 292.979 335.986 294.143 333.01 298.672C330.034 303.071 325.376 315.752 327.058 315.881C328.869 316.011 330.034 314.976 330.034 314.976L334.692 306.824C334.692 306.824 333.916 314.717 336.762 314.846C339.48 314.975 353.195 317.693 353.195 317.693L352.807 292.979Z" fill="#F4DBCF"/>
<path d="M440.409 274.344V317.691C439.892 327.784 430.316 335.03 420.483 332.96L352.68 318.985L352.809 291.165L411.296 302.423L412.072 273.05L440.409 274.344Z" fill="#6084FD"/>
<path d="M401.72 329.467C401.72 329.467 401.461 329.337 400.814 329.208C400.168 329.078 399.262 328.82 398.227 328.561C395.898 328.043 392.533 327.396 388.263 326.49C379.594 324.679 367.431 322.22 352.939 319.244L353.327 319.633C353.327 310.963 353.327 301.259 353.327 291.037L352.809 291.554C356.691 292.33 360.702 293.107 364.714 293.883C381.794 297.118 397.838 300.223 411.295 302.811L411.813 302.941V302.423C411.425 289.484 411.037 278.744 410.778 271.11C410.648 267.357 410.519 264.511 410.39 262.44C410.39 261.535 410.26 260.758 410.26 260.111C410.26 259.594 410.131 259.335 410.131 259.335C410.131 259.335 410.131 259.594 410.131 260.111C410.131 260.758 410.131 261.405 410.131 262.44C410.131 264.511 410.26 267.487 410.26 271.239C410.39 278.873 410.648 289.613 411.037 302.553L411.554 302.164C398.097 299.576 382.052 296.471 364.972 293.107C360.832 292.33 356.821 291.554 353.068 290.778L352.551 290.648V291.166C352.551 301.388 352.551 310.963 352.551 319.762V320.15L352.939 320.28C367.431 323.126 379.594 325.455 388.263 327.137C392.533 327.914 395.898 328.561 398.227 328.949C399.391 329.078 400.168 329.337 400.944 329.467C401.332 329.467 401.72 329.467 401.72 329.467Z" fill="#0C162C"/>
<path d="M362.772 216.376C362.772 216.376 362.643 216.635 362.514 217.023C362.384 217.411 362.125 218.058 361.996 218.964C361.608 220.646 361.478 223.234 362.255 226.21C363.031 229.186 365.101 232.55 368.077 235.267C371.183 238.114 375.582 239.926 380.37 239.926C385.158 239.926 389.686 237.985 392.533 235.009C395.38 232.033 396.674 228.28 397.062 225.175C397.45 222.069 396.803 219.481 396.156 217.929C395.897 217.152 395.509 216.505 395.25 216.117C394.991 215.729 394.862 215.47 394.862 215.6C394.733 215.6 395.25 216.505 395.768 218.058C396.285 219.611 396.674 222.069 396.285 225.045C395.897 228.021 394.603 231.515 391.757 234.362C389.039 237.208 384.769 239.02 380.241 239.02C375.712 239.02 371.442 237.338 368.466 234.621C365.49 232.033 363.549 228.927 362.643 225.951C361.737 223.104 361.867 220.517 361.996 218.964C362.643 217.282 362.902 216.376 362.772 216.376Z" fill="#0C162C"/>
<path d="M359.537 321.185C359.667 321.185 359.667 319.503 359.537 316.915C359.408 314.327 359.278 310.704 359.278 306.693C359.278 302.682 359.278 299.059 359.408 296.471C359.537 293.883 359.537 292.201 359.408 292.201C359.278 292.201 359.02 293.753 358.761 296.471C358.502 299.059 358.373 302.811 358.373 306.822C358.373 310.833 358.631 314.456 358.89 317.174C359.149 319.632 359.408 321.314 359.537 321.185Z" fill="#FAFAFA"/>
<path d="M363.032 321.962C363.161 321.962 363.161 320.28 363.161 317.692C363.161 314.716 363.032 311.222 363.032 307.47C363.032 303.717 363.032 300.224 363.032 297.248C363.032 294.66 363.032 292.978 362.903 292.978C362.773 292.978 362.514 294.53 362.385 297.248C362.256 299.835 362.126 303.458 362.126 307.47C362.126 311.481 362.256 315.104 362.514 317.692C362.644 320.409 362.903 321.962 363.032 321.962Z" fill="#FAFAFA"/>
<path d="M295.101 494.185L282.291 529.51L264.046 554.483C262.753 556.294 263.27 558.882 265.082 560.047C266.117 560.694 267.411 560.823 268.575 560.306C275.951 557.2 302.865 545.943 303.641 543.355C304.547 540.25 321.886 502.337 321.886 502.337L295.101 494.185Z" fill="#6084FD"/>
<g opacity="0.6">
<g opacity="0.6">
<path opacity="0.6" d="M265.21 560.047L304.675 541.026L304.158 542.449C303.64 543.743 302.734 544.778 301.57 545.425C298.335 547.107 289.277 551.766 268.963 560.306C267.669 560.823 266.245 560.694 265.21 560.047Z" fill="white"/>
</g>
</g>
<g opacity="0.6">
<g opacity="0.6">
<g opacity="0.6">
<path opacity="0.6" d="M301.83 526.922C300.666 527.181 299.889 528.346 300.148 529.51C300.407 530.675 301.571 531.451 302.736 531.192C303.901 530.933 304.806 529.51 304.548 528.475C304.159 527.44 302.736 526.534 301.701 527.052" fill="white"/>
</g>
</g>
</g>
<path d="M279.185 547.884C278.927 547.884 278.926 545.814 277.115 544.002C275.433 542.191 273.363 541.932 273.363 541.673C273.363 541.544 273.88 541.414 274.786 541.673C275.692 541.932 276.727 542.45 277.762 543.485C278.668 544.52 279.185 545.684 279.315 546.59C279.315 547.367 279.185 547.884 279.185 547.884Z" fill="#0C162C"/>
<path d="M274.788 551.635C274.529 551.765 273.882 550.083 272.33 548.918C270.777 547.624 269.095 547.365 269.095 547.106C269.095 546.848 271.036 546.848 272.847 548.271C274.659 549.565 275.047 551.506 274.788 551.635Z" fill="#0C162C"/>
<path d="M286.043 543.614C285.784 543.743 284.749 541.285 282.42 539.214C280.091 537.015 277.632 536.238 277.762 535.979C277.762 535.721 280.608 536.238 283.067 538.567C285.525 540.896 286.302 543.614 286.043 543.614Z" fill="#0C162C"/>
<path d="M290.962 533.261C290.833 533.39 289.15 531.837 286.692 530.802C284.234 529.638 282.034 529.508 282.034 529.379C282.034 529.12 284.363 528.991 287.08 530.155C289.668 531.191 291.091 533.131 290.962 533.261Z" fill="#0C162C"/>
<path d="M294.972 523.039C294.842 523.169 293.29 521.228 290.572 520.322C287.855 519.287 285.526 519.934 285.526 519.675C285.526 519.546 286.044 519.287 287.079 519.158C288.114 519.028 289.537 519.028 290.961 519.546C292.384 520.063 293.548 520.84 294.195 521.616C294.713 522.392 294.972 522.91 294.972 523.039Z" fill="#0C162C"/>
<path d="M291.35 518.382C291.35 518.382 291.35 517.864 291.867 517.088C292.255 516.311 293.032 515.147 294.326 513.982C294.973 513.465 295.62 512.818 296.784 512.688C297.302 512.688 298.078 513.076 298.337 513.594C298.596 514.241 298.466 514.888 298.337 515.406C297.431 517.605 294.714 519.029 292.126 518.382C289.538 517.735 287.856 515.406 287.597 513.076C287.597 512.559 287.597 511.783 288.115 511.394C288.632 510.877 289.409 510.877 289.926 511.265C290.961 511.783 291.35 512.688 291.738 513.335C292.514 514.759 292.902 516.053 293.032 516.958C293.161 517.864 293.161 518.382 293.161 518.382C293.032 518.382 292.902 516.311 291.22 513.594C290.832 512.947 290.314 512.171 289.538 511.783C289.15 511.653 288.762 511.653 288.632 511.912C288.374 512.171 288.244 512.559 288.374 513.076C288.632 515.017 290.185 517.088 292.385 517.605C294.585 518.123 297.043 516.958 297.69 515.147C297.819 514.759 297.949 514.241 297.819 513.853C297.69 513.465 297.431 513.335 297.043 513.335C296.267 513.335 295.49 513.853 294.843 514.37C292.126 516.441 291.479 518.511 291.35 518.382Z" fill="#0C162C"/>
<path d="M241.011 480.999L242.176 509.724C242.176 509.724 213.45 520.464 213.062 525.769L268.702 525.639L268.831 480.869L241.011 480.999Z" fill="#6084FD"/>
<g opacity="0.6">
<g opacity="0.6">
<path opacity="0.6" d="M259.386 507.266C260.421 507.524 261.197 508.818 260.938 509.854C260.68 510.889 259.515 511.665 258.351 511.406C257.315 511.148 256.28 509.724 256.669 508.689C257.057 507.654 258.48 506.748 259.515 507.395" fill="white"/>
</g>
</g>
<g opacity="0.6">
<path opacity="0.6" d="M268.702 525.639V521.24L215.133 523.051C215.133 523.051 212.675 524.086 212.933 525.898L268.702 525.639Z" fill="white"/>
</g>
<path d="M241.27 509.466C241.27 509.724 242.693 509.854 243.987 510.759C245.41 511.536 246.057 512.83 246.316 512.7C246.575 512.7 246.187 511.018 244.504 509.983C242.822 508.819 241.14 509.207 241.27 509.466Z" fill="#0C162C"/>
<path d="M235.318 511.795C235.318 512.054 236.483 512.571 237.388 513.606C238.294 514.771 238.553 515.936 238.812 515.936C239.071 515.936 239.2 514.383 238.035 512.959C237 511.666 235.318 511.536 235.318 511.795Z" fill="#0C162C"/>
<path d="M232.079 518.781C232.338 518.781 232.726 517.487 231.95 515.934C231.303 514.382 230.009 513.864 229.88 514.123C229.75 514.382 230.527 515.158 231.174 516.322C231.691 517.616 231.821 518.781 232.079 518.781Z" fill="#0C162C"/>
<path d="M241.658 502.867C241.788 503.125 243.082 502.737 244.505 502.867C246.058 502.996 247.222 503.384 247.352 503.255C247.481 502.996 246.316 502.09 244.505 501.961C242.823 501.702 241.529 502.608 241.658 502.867Z" fill="#0C162C"/>
<g opacity="0.3">
<path opacity="0.3" d="M241.271 486.692L241.4 491.739L268.832 491.48V486.822L241.271 486.692Z" fill="black"/>
</g>
<path d="M241.528 497.044C241.528 497.174 242.564 497.303 244.375 497.044C245.281 496.915 246.187 496.656 247.351 496.139C247.869 495.88 248.386 495.621 248.904 495.233C249.163 495.104 249.422 494.845 249.68 494.586C249.939 494.327 250.198 493.551 249.81 493.163C249.551 492.774 249.033 492.516 248.645 492.516C248.257 492.516 247.869 492.645 247.61 492.645C246.963 492.774 246.445 493.033 245.928 493.292C244.893 493.81 243.987 494.457 243.34 494.974C242.046 496.139 241.658 497.174 241.658 497.303C241.787 497.433 242.434 496.527 243.728 495.492C244.375 494.974 245.281 494.457 246.187 494.068C246.704 493.81 247.222 493.68 247.739 493.551C248.386 493.421 248.775 493.421 249.033 493.68C249.033 493.81 249.033 493.81 249.033 493.939C248.904 494.068 248.645 494.198 248.386 494.457C247.869 494.715 247.351 495.103 246.963 495.362C246.057 495.88 245.022 496.139 244.246 496.397C242.564 496.786 241.528 496.915 241.528 497.044Z" fill="#0C162C"/>
<path d="M241.92 497.431C242.049 497.431 242.567 496.526 242.696 494.714C242.696 493.808 242.696 492.773 242.308 491.609C242.178 491.091 241.92 490.444 241.532 489.927C241.143 489.409 240.755 488.633 239.72 488.503C239.202 488.503 238.685 488.891 238.555 489.28C238.426 489.668 238.297 489.927 238.297 490.315C238.167 490.962 238.167 491.609 238.297 492.256C238.426 493.42 238.944 494.455 239.461 495.102C240.496 496.526 241.661 496.914 241.661 496.784C241.79 496.655 240.755 496.137 239.979 494.714C239.591 494.067 239.202 493.161 239.073 492.126C239.073 491.609 239.073 491.091 239.073 490.573C239.202 489.927 239.332 489.538 239.591 489.538C239.849 489.538 240.367 489.927 240.626 490.444C240.885 490.962 241.143 491.479 241.273 491.997C241.661 493.032 241.79 493.938 241.79 494.714C242.049 496.396 241.79 497.431 241.92 497.431Z" fill="#0C162C"/>
<path d="M268.704 347.452C301.57 350.817 345.176 355.345 345.176 355.345L339.224 408.914C339.224 408.914 275.174 391.964 275.562 393.387C276.079 394.811 272.586 507.383 272.586 507.383H234.026L233.25 379.93C233.12 360.651 249.683 345.511 268.704 347.452Z" fill="#0C162C"/>
<path d="M423.976 369.061V385.623C423.976 396.881 411.037 408.914 399.779 408.914H390.981C384.123 408.914 373.254 403.868 367.69 399.857L364.325 397.398L324.084 521.875C324.084 521.875 278.149 513.594 278.149 512.171C278.149 510.747 309.333 410.208 323.696 363.497C329.518 344.476 349.963 333.348 368.854 339.818C369.501 340.077 370.148 340.335 370.795 340.594C391.498 349.005 423.976 369.061 423.976 369.061Z" fill="#0C162C"/>
<path d="M278.41 512.302C278.41 512.302 278.54 512.172 278.669 511.913C278.799 511.525 278.928 511.137 279.187 510.619C279.575 509.455 280.222 507.773 280.998 505.444C282.551 500.915 284.621 494.445 287.209 486.293C292.385 470.119 299.243 447.605 306.748 422.761C310.5 410.339 313.994 398.435 317.229 387.695C318.781 382.261 320.334 377.214 321.757 372.427C322.534 369.968 323.181 367.768 323.828 365.439C324.475 363.24 325.122 361.04 325.898 359.099C327.451 355.217 329.909 352.241 332.368 349.912C334.826 347.583 337.155 345.901 339.226 344.607C341.166 343.313 342.719 342.278 343.884 341.631C344.401 341.372 344.789 341.113 345.048 340.854C345.307 340.725 345.436 340.596 345.436 340.596C345.436 340.596 345.307 340.596 345.048 340.854C344.66 340.984 344.272 341.243 343.754 341.501C342.59 342.148 341.037 343.054 339.096 344.348C337.026 345.642 334.697 347.324 332.109 349.524C329.65 351.853 327.063 354.829 325.38 358.84C324.475 360.781 323.828 362.981 323.181 365.181C322.534 367.38 321.757 369.709 321.11 372.038C319.687 376.826 318.134 382.002 316.452 387.307C313.217 398.047 309.594 409.951 305.842 422.373C298.337 447.216 291.609 469.602 286.692 486.035C284.233 494.057 282.163 500.656 280.739 505.314C280.092 507.514 279.445 509.326 279.057 510.49C278.928 511.008 278.799 511.525 278.669 511.913C278.41 512.043 278.281 512.302 278.41 512.302Z" fill="#555C6C"/>
<path d="M268.706 377.342C268.447 377.472 270.646 380.836 272.458 385.235C274.27 389.635 275.046 393.517 275.434 393.517C275.693 393.517 275.305 389.505 273.364 384.847C271.423 380.189 268.835 377.084 268.706 377.342Z" fill="#555C6C"/>
<path d="M261.329 382.517C261.2 382.776 264.564 384.199 267.928 386.916C271.422 389.634 273.621 392.48 273.88 392.351C274.139 392.222 272.198 388.987 268.575 386.14C264.952 383.293 261.329 382.258 261.329 382.517Z" fill="#555C6C"/>
<path d="M323.957 522.006C324.215 522.135 335.084 488.752 348.153 447.604C361.351 406.457 371.703 372.944 371.444 372.944C371.185 372.815 360.316 406.198 347.247 447.346C334.049 488.493 323.698 521.877 323.957 522.006Z" fill="#555C6C"/>
<path d="M373.255 327.784L241.661 329.078L217.206 259.723L312.828 260.37L335.084 322.738L373.255 323.256V327.784Z" fill="#555C6C"/>
<path d="M271.956 291.814L275.458 292.701L276.31 296.055L273.667 298.514L270.168 297.631L269.316 294.279L271.956 291.814ZM271.331 289.354L270.358 290.256L267.712 292.722L266.74 293.624L268.217 299.44L269.502 299.768L273.005 300.655L274.29 300.983L275.263 300.081L277.903 297.621L278.875 296.719L277.396 290.895L276.111 290.566L272.611 289.683L271.326 289.355L271.331 289.354Z" fill="white"/>
<path d="M383.999 140.163C382.705 135.505 379.341 133.305 374.812 131.753C370.283 130.2 364.978 131.106 361.226 133.952C358.638 135.893 356.697 138.74 353.721 139.775C348.804 141.457 342.981 137.834 338.194 140.034C335.347 141.328 333.794 144.821 334.441 147.798C335.218 150.774 338.194 153.103 341.299 152.973C338.064 154.138 337.029 158.796 338.97 161.643C340.911 164.489 344.793 165.654 348.157 165.007C351.521 164.36 354.497 162.29 357.085 159.961C359.673 157.631 362.002 155.044 364.719 152.973C367.437 150.903 370.801 149.35 374.295 149.48C378.953 149.738 382.964 153.232 385.034 157.373C387.105 161.513 387.622 166.301 387.881 170.959C388.14 175.617 388.269 180.405 389.563 184.804C389.692 185.322 389.951 185.969 390.469 186.098C391.245 186.357 391.892 185.581 392.28 184.804C396.55 176.911 399.268 168.242 400.173 159.314C400.691 154.138 400.562 149.221 397.715 144.951C394.609 140.551 387.493 137.317 383.999 140.163Z" fill="#0C162C"/>
<path d="M392.926 161.772L395.255 214.177C395.643 223.105 394.478 236.303 380.374 236.303C368.082 235.398 364.459 223.881 364.2 215.6C364.071 211.718 363.812 208.354 363.812 207.966C363.812 207.966 350.484 207.319 348.802 194.121C348.026 187.781 347.508 174.582 347.249 162.549C346.861 149.739 356.566 138.74 369.246 137.446L370.54 137.317C384.386 136.67 392.667 147.927 392.926 161.772Z" fill="#F4DBCF"/>
<path d="M363.81 207.707C363.81 207.707 372.221 207.448 380.502 200.978C380.502 200.978 377.396 210.941 364.198 211.071L363.81 207.707Z" fill="#E6BFAB"/>
<path d="M352.166 170.96C352.295 171.995 353.201 172.772 354.236 172.642C355.272 172.642 356.048 171.737 356.048 170.701C355.919 169.666 355.013 168.89 353.978 169.019C352.813 169.149 352.037 169.925 352.166 170.96Z" fill="#0C162C"/>
<path d="M350.871 168.76C351.129 169.019 352.423 167.725 354.494 167.596C356.564 167.337 358.117 168.243 358.246 167.984C358.375 167.854 358.117 167.466 357.34 167.078C356.693 166.69 355.529 166.302 354.235 166.431C352.941 166.561 351.906 167.208 351.388 167.725C350.871 168.113 350.741 168.631 350.871 168.76Z" fill="#0C162C"/>
<path d="M371.963 169.536C372.093 170.571 372.999 171.348 374.034 171.218C375.069 171.218 375.845 170.312 375.845 169.277C375.716 168.242 374.81 167.466 373.775 167.595C372.74 167.725 371.963 168.501 371.963 169.536Z" fill="#0C162C"/>
<path d="M370.799 166.948C371.058 167.207 372.352 165.913 374.422 165.783C376.493 165.524 378.045 166.43 378.175 166.171C378.304 166.042 378.045 165.654 377.269 165.266C376.622 164.877 375.457 164.489 374.164 164.619C372.87 164.748 371.834 165.395 371.317 165.913C370.799 166.43 370.67 166.818 370.799 166.948Z" fill="#0C162C"/>
<path d="M364.976 182.736C364.976 182.606 363.682 182.477 361.611 182.477C361.094 182.477 360.576 182.477 360.447 182.089C360.317 181.7 360.447 181.183 360.576 180.536C360.964 179.242 361.353 177.819 361.741 176.395C363.293 170.572 364.329 165.785 364.07 165.785C363.811 165.785 362.388 170.443 360.835 176.266C360.447 177.689 360.059 179.113 359.8 180.406C359.67 181.053 359.412 181.7 359.8 182.477C359.929 182.865 360.447 183.124 360.706 183.124C361.094 183.253 361.353 183.124 361.611 183.124C363.811 182.994 364.976 182.865 364.976 182.736Z" fill="#0C162C"/>
<path d="M371.187 183.51C370.798 183.51 371.057 185.71 369.375 187.522C367.693 189.333 365.234 189.333 365.364 189.592C365.364 189.721 365.881 189.98 366.917 189.851C367.952 189.721 369.246 189.333 370.281 188.298C371.316 187.263 371.704 185.84 371.704 184.934C371.575 184.028 371.316 183.51 371.187 183.51Z" fill="#0C162C"/>
<path d="M369.376 159.054C369.635 159.572 371.576 159.054 374.034 159.184C376.493 159.184 378.433 159.701 378.692 159.184C378.822 158.925 378.433 158.407 377.528 158.019C376.751 157.631 375.457 157.243 374.034 157.243C372.611 157.243 371.317 157.631 370.54 158.019C369.635 158.407 369.246 158.795 369.376 159.054Z" fill="#0C162C"/>
<path d="M351.003 162.808C351.391 163.196 352.814 162.549 354.367 162.42C356.049 162.161 357.473 162.42 357.731 161.902C357.861 161.643 357.602 161.255 356.955 160.867C356.308 160.479 355.273 160.22 354.108 160.349C352.944 160.479 352.038 160.996 351.521 161.514C350.874 162.031 350.744 162.549 351.003 162.808Z" fill="#0C162C"/>
<path d="M392.926 171.605C393.185 171.476 401.725 167.982 402.372 177.04C403.019 186.097 393.832 184.933 393.832 184.674C393.702 184.286 392.926 171.605 392.926 171.605Z" fill="#F4DBCF"/>
<path d="M396.29 180.92C396.29 180.92 396.419 181.049 396.678 181.179C396.937 181.308 397.454 181.308 397.842 181.179C398.748 180.79 399.525 179.238 399.395 177.556C399.395 176.779 399.136 176.003 398.748 175.356C398.36 174.709 397.972 174.321 397.454 174.191C396.937 174.062 396.678 174.45 396.549 174.709C396.419 174.968 396.549 175.097 396.419 175.227C396.419 175.227 396.16 175.097 396.29 174.709C396.29 174.58 396.419 174.321 396.549 174.062C396.807 173.933 397.066 173.803 397.454 173.803C398.101 173.803 398.878 174.45 399.266 175.097C399.654 175.744 399.913 176.65 400.042 177.556C400.172 179.367 399.266 181.179 398.101 181.567C397.454 181.826 396.937 181.567 396.678 181.437C396.29 181.179 396.29 181.049 396.29 180.92Z" fill="#E6BFAB"/>
<path d="M344.272 160.091C350.224 160.997 356.565 158.797 360.705 154.527C363.681 151.421 365.622 147.281 369.504 145.599C372.092 144.434 375.197 144.693 377.785 145.857C380.373 147.022 382.573 148.834 384.643 150.904C382.832 157.891 385.29 165.137 387.749 171.866C388.007 172.642 388.396 173.418 389.043 173.807C390.207 174.454 391.76 173.677 392.536 172.642C393.83 170.96 394.218 168.631 394.348 166.561C394.736 161.644 394.348 156.597 392.666 151.939C391.113 147.281 388.266 143.011 384.384 139.905C379.467 136.153 373.127 134.6 366.916 135.377C360.705 136.153 355.012 139 350.612 143.27C348.542 145.211 346.601 147.54 345.825 150.257" fill="#0C162C"/>
<path d="M165.838 202.272L190.552 305.27H183.695L159.368 202.272H165.838Z" fill="#0C162C"/>
<path d="M175.28 270.077C175.668 272.018 164.152 328.175 164.152 328.175H169.716L178.515 283.663L175.28 270.077Z" fill="#0C162C"/>
<path d="M93.2471 402.447H208.667V524.854H93.2471V402.447Z" fill="#A0B3F2"/>
<path d="M87.5561 420.302H93.2494V425.996H87.5561V420.302Z" fill="#0C162C"/>
<path d="M87.5561 438.29H93.2494V443.983H87.5561V438.29Z" fill="#0C162C"/>
<path d="M87.5561 456.405H93.2494V462.098H87.5561V456.405Z" fill="#0C162C"/>
<path d="M87.5561 474.389H93.2494V480.083H87.5561V474.389Z" fill="#0C162C"/>
<path d="M87.4237 457.958C87.4237 457.958 86.7767 457.828 85.7416 457.57C84.577 457.44 83.0243 457.052 80.8246 457.052C78.7543 457.052 76.1664 457.44 73.8373 458.864C72.6728 459.64 71.5082 460.675 70.8613 462.098C70.0849 463.522 69.8261 465.074 69.9555 466.757C70.0849 468.309 70.6025 469.862 71.3788 471.156C72.1552 472.45 73.1904 473.485 74.3549 474.261C76.5546 475.944 79.0131 476.59 81.0834 476.979C83.1537 477.237 84.8358 477.237 86.0004 477.108C87.1649 476.979 87.8119 476.849 87.8119 476.849C87.8119 476.849 87.1649 476.849 86.0004 476.849C84.8358 476.849 83.1537 476.849 81.2128 476.461C79.2719 476.073 76.9428 475.297 74.7431 473.744C72.6728 472.191 70.7318 469.603 70.6025 466.627C70.4731 465.074 70.7319 463.651 71.3788 462.357C72.0258 461.063 73.061 460.157 74.0961 459.381C76.2958 457.958 78.7543 457.57 80.8246 457.44C82.8949 457.44 84.4476 457.57 85.6122 457.699C86.7767 457.958 87.4237 458.087 87.4237 457.958Z" fill="#0C162C"/>
<path d="M88.8494 440.099C88.8494 440.099 88.72 439.97 88.3318 439.711C87.9436 439.582 87.4261 439.323 86.6497 439.064C85.097 438.547 82.7679 438.158 80.0506 438.676C79.4036 438.805 78.6272 439.064 77.9803 439.452C77.3333 439.841 76.6863 440.617 76.4275 441.523C75.91 443.205 76.5569 445.146 77.7215 446.698C78.3684 447.475 79.1448 448.122 80.0506 448.51C80.9563 448.898 82.2503 448.898 83.156 448.381C84.0618 447.863 84.9675 446.828 84.9675 445.663C84.9675 444.499 84.1912 443.334 83.156 442.817C82.1209 442.299 80.9563 442.299 79.7918 442.428C78.7566 442.687 77.7215 443.205 76.9451 443.852C75.263 445.146 74.2278 447.087 74.0984 449.028C73.8397 450.968 74.616 452.78 75.5218 454.203C76.5569 455.627 77.8509 456.532 79.0154 457.179C81.6033 458.473 83.9324 458.732 85.4851 458.862C86.2615 458.862 86.9085 458.991 87.2967 458.991C87.6848 458.991 87.9436 458.991 87.9436 458.991C87.9436 458.991 87.0378 458.862 85.4851 458.732C83.9324 458.473 81.7327 458.215 79.2742 456.921C78.1097 456.274 76.8157 455.368 75.91 454.074C75.0042 452.78 74.3572 451.098 74.616 449.286C74.8748 447.475 75.7806 445.793 77.3333 444.628C78.1097 443.981 79.0154 443.593 79.9212 443.334C80.8269 443.075 81.8621 443.205 82.7679 443.593C83.6736 443.981 84.1912 444.887 84.1912 445.793C84.1912 446.698 83.5442 447.475 82.7679 447.992C81.9915 448.51 80.9564 448.51 80.18 448.122C79.2742 447.863 78.6272 447.216 78.1097 446.569C76.9451 445.275 76.4276 443.464 76.8157 441.911C77.2039 440.358 78.6272 439.582 80.0506 439.323C82.7679 438.676 84.9676 439.064 86.5203 439.452C87.9436 439.711 88.72 440.229 88.8494 440.099Z" fill="#0C162C"/>
<path d="M88.719 422.503C88.719 422.503 88.3308 422.374 87.4251 422.244C86.6487 422.244 85.3548 422.244 83.9314 422.762C82.5081 423.279 80.9553 424.185 79.6614 425.608C78.3675 427.161 77.4617 429.231 77.4617 431.56C77.3323 433.89 78.1087 436.089 79.2732 437.642C80.4378 439.195 81.9905 440.23 83.4139 440.747C84.8372 441.265 86.0017 441.394 86.7781 441.394C87.5544 441.394 88.072 441.265 88.072 441.265C88.072 441.136 86.1311 441.524 83.5432 440.23C82.2493 439.583 80.826 438.677 79.7908 437.124C78.6263 435.572 77.9793 433.631 78.1087 431.431C78.2381 429.231 79.0145 427.29 80.179 425.867C81.3436 424.444 82.8963 423.538 84.1902 423.02C86.9075 422.244 88.719 422.632 88.719 422.503Z" fill="#0C162C"/>
<path d="M174.379 337.491C174.379 337.491 173.862 338.267 173.344 339.82C172.827 341.373 172.309 343.702 171.791 346.807C171.274 349.913 170.886 353.665 170.498 357.935C170.109 362.335 169.721 367.252 169.074 372.816C168.945 374.239 168.686 375.533 168.427 376.956C168.168 378.379 167.78 379.803 167.133 381.097C166.486 382.391 165.451 383.555 164.287 384.59C163.122 385.626 161.957 386.661 160.534 387.437C157.817 389.119 154.582 390.284 151.218 390.672C147.854 391.06 144.231 390.543 140.996 388.86C137.761 387.308 135.173 384.202 134.397 380.579C134.008 378.768 134.138 376.827 134.785 375.015C135.432 373.204 136.726 371.78 138.408 370.745C139.961 369.71 141.901 369.063 143.842 368.934C145.783 368.804 147.854 369.322 149.406 370.616C150.183 371.263 150.83 371.91 151.218 372.816C151.606 373.721 151.735 374.627 151.606 375.662C151.218 377.603 149.794 379.285 147.983 380.191C146.171 381.226 144.101 381.614 142.031 381.873C139.961 382.132 137.89 382.261 135.949 382.261C131.809 382.391 127.797 382.002 123.916 381.614C116.023 380.709 108.388 379.415 101.142 379.415C93.8962 379.285 86.7796 380.32 80.8274 383.296C77.8514 384.72 75.2635 386.661 73.3226 388.99C71.2523 391.319 69.9583 394.036 69.4407 396.753C68.2762 402.317 69.5701 407.493 71.6404 411.375C73.8401 415.257 76.8162 417.845 79.2747 419.527C81.8626 421.209 84.0623 422.244 85.615 422.762C87.1677 423.279 87.9441 423.538 87.9441 423.538C87.9441 423.538 87.6853 423.409 87.2971 423.279C86.909 423.15 86.262 422.891 85.615 422.632C84.0623 421.985 81.8626 421.08 79.4041 419.268C76.9456 417.456 73.9695 414.869 71.8992 411.116C69.8289 407.364 68.6644 402.188 69.8289 396.883C70.4759 394.295 71.6405 391.578 73.7108 389.378C75.6517 387.178 78.2395 385.237 81.0862 383.943C86.9089 381.097 93.8962 380.062 101.142 380.191C108.388 380.32 116.023 381.614 123.916 382.391C127.927 382.779 131.938 383.167 136.079 383.038C138.149 383.038 140.219 382.908 142.29 382.649C144.36 382.391 146.56 382.002 148.371 380.967C150.312 379.932 151.865 378.121 152.253 375.921C152.512 374.886 152.253 373.721 151.865 372.686C151.347 371.651 150.7 370.875 149.794 370.228C148.112 368.934 145.913 368.416 143.842 368.416C141.772 368.546 139.702 369.193 138.02 370.357C136.337 371.522 134.914 373.074 134.138 375.015C133.361 376.956 133.361 379.026 133.75 380.838C134.655 384.72 137.373 387.825 140.737 389.507C144.101 391.189 147.854 391.707 151.218 391.319C154.711 390.931 157.946 389.766 160.793 388.084C162.216 387.178 163.51 386.273 164.545 385.108C165.71 383.943 166.745 382.908 167.521 381.485C168.168 380.062 168.557 378.638 168.815 377.215C169.074 375.792 169.333 374.368 169.462 373.074C170.109 367.64 170.497 362.593 170.886 358.194C171.274 353.795 171.662 350.042 172.05 347.066C172.438 343.961 172.956 341.632 173.474 340.079C173.732 339.302 173.862 338.655 174.121 338.397C174.379 337.62 174.379 337.491 174.379 337.491Z" fill="#0C162C"/>
<path d="M99.8476 519.678C99.8476 519.678 99.8476 519.548 99.8476 519.16C99.8476 518.772 99.8476 518.254 99.8476 517.607C99.8476 516.184 99.8476 514.243 99.8476 511.526C99.8476 506.221 99.8476 498.457 99.977 488.623C99.977 468.955 100.106 440.877 100.106 407.234L99.8476 407.493C130.385 407.493 166.097 407.493 204.269 407.493L203.88 407.105C203.88 448.511 203.88 487.07 203.88 519.548L204.139 519.289C172.826 519.289 146.818 519.419 128.573 519.419C119.386 519.419 112.269 519.419 107.352 519.548C104.894 519.548 103.082 519.548 101.789 519.548C100.495 519.678 99.8476 519.678 99.8476 519.678C99.8476 519.678 100.495 519.678 101.789 519.678C103.082 519.678 104.894 519.678 107.352 519.678C112.269 519.678 119.386 519.678 128.444 519.807C146.688 519.807 172.826 519.936 204.269 519.936H204.527V519.678C204.527 487.2 204.527 448.511 204.527 407.234V406.846H204.139C166.097 406.846 130.385 406.846 99.7182 406.846H99.4594V407.105C99.4594 440.747 99.5889 468.955 99.5889 488.623C99.5889 498.457 99.5888 506.221 99.7182 511.526C99.7182 514.114 99.7182 516.184 99.7182 517.478C99.7182 518.125 99.7182 518.642 99.7182 519.031C99.8476 519.548 99.8476 519.678 99.8476 519.678Z" fill="#0C162C"/>
<path d="M129.219 421.079C129.219 421.338 129.478 421.597 129.737 421.597C129.996 421.597 130.254 421.338 130.254 421.079C130.254 420.82 129.996 420.562 129.737 420.562C129.478 420.562 129.219 420.82 129.219 421.079Z" fill="#0C162C"/>
<path d="M126.241 421.079C126.241 421.338 126.5 421.597 126.758 421.597C127.017 421.597 127.276 421.338 127.276 421.079C127.276 420.82 127.017 420.562 126.758 420.562C126.5 420.562 126.241 420.82 126.241 421.079Z" fill="#0C162C"/>
<path d="M123.268 421.079C123.268 421.338 123.526 421.597 123.785 421.597C124.044 421.597 124.303 421.338 124.303 421.079C124.303 420.82 124.044 420.562 123.785 420.562C123.526 420.562 123.268 420.82 123.268 421.079Z" fill="#0C162C"/>
<path d="M120.419 421.079C120.419 421.338 120.678 421.597 120.937 421.597C121.196 421.597 121.455 421.338 121.455 421.079C121.455 420.82 121.196 420.562 120.937 420.562C120.678 420.562 120.419 420.82 120.419 421.079Z" fill="#0C162C"/>
<path d="M117.446 421.079C117.446 421.338 117.705 421.597 117.964 421.597C118.223 421.597 118.481 421.338 118.481 421.079C118.481 420.82 118.223 420.562 117.964 420.562C117.705 420.562 117.446 420.82 117.446 421.079Z" fill="#0C162C"/>
<path d="M114.468 421.079C114.468 421.338 114.726 421.597 114.985 421.597C115.244 421.597 115.503 421.338 115.503 421.079C115.503 420.82 115.244 420.562 114.985 420.562C114.726 420.562 114.468 420.82 114.468 421.079Z" fill="#0C162C"/>
<path d="M111.494 421.079C111.494 421.338 111.753 421.597 112.012 421.597C112.271 421.597 112.53 421.338 112.53 421.079C112.53 420.82 112.271 420.562 112.012 420.562C111.753 420.562 111.494 420.82 111.494 421.079Z" fill="#0C162C"/>
<path d="M113.433 423.667C113.148 423.667 112.916 423.435 112.916 423.15C112.916 422.864 113.148 422.632 113.433 422.632C113.719 422.632 113.951 422.864 113.951 423.15C113.951 423.435 113.719 423.667 113.433 423.667Z" fill="#0C162C"/>
<path d="M116.408 423.666C116.123 423.666 115.891 423.435 115.891 423.149C115.891 422.863 116.123 422.631 116.408 422.631C116.694 422.631 116.926 422.863 116.926 423.149C116.926 423.435 116.694 423.666 116.408 423.666Z" fill="#0C162C"/>
<path d="M118.87 423.15C118.87 423.409 119.128 423.667 119.387 423.667C119.646 423.667 119.905 423.409 119.905 423.15C119.905 422.891 119.646 422.632 119.387 422.632C119.128 422.503 118.87 422.762 118.87 423.15Z" fill="#0C162C"/>
<path d="M122.492 423.666C122.207 423.666 121.975 423.435 121.975 423.149C121.975 422.863 122.207 422.631 122.492 422.631C122.778 422.631 123.01 422.863 123.01 423.149C123.01 423.435 122.778 423.666 122.492 423.666Z" fill="#0C162C"/>
<path d="M125.467 423.666C125.182 423.666 124.95 423.435 124.95 423.149C124.95 422.863 125.182 422.631 125.467 422.631C125.753 422.631 125.985 422.863 125.985 423.149C125.985 423.435 125.753 423.666 125.467 423.666Z" fill="#0C162C"/>
<path d="M127.925 423.15C127.925 423.409 128.184 423.667 128.442 423.667C128.701 423.667 128.96 423.409 128.96 423.15C128.96 422.891 128.701 422.632 128.442 422.632C128.184 422.503 127.925 422.762 127.925 423.15Z" fill="#0C162C"/>
<path d="M129.219 425.349C129.219 425.608 129.478 425.866 129.737 425.866C129.996 425.866 130.255 425.608 130.255 425.349C130.255 425.09 129.996 424.831 129.737 424.831C129.478 424.831 129.219 425.09 129.219 425.349Z" fill="#0C162C"/>
<path d="M126.241 425.349C126.241 425.608 126.5 425.866 126.758 425.866C127.017 425.866 127.276 425.608 127.276 425.349C127.276 425.09 127.017 424.831 126.758 424.831C126.5 424.831 126.241 425.09 126.241 425.349Z" fill="#0C162C"/>
<path d="M123.268 425.349C123.268 425.608 123.526 425.866 123.785 425.866C124.044 425.866 124.303 425.608 124.303 425.349C124.303 425.09 124.044 424.831 123.785 424.831C123.526 424.831 123.268 425.09 123.268 425.349Z" fill="#0C162C"/>
<path d="M120.419 425.349C120.419 425.608 120.678 425.866 120.937 425.866C121.196 425.866 121.455 425.608 121.455 425.349C121.455 425.09 121.196 424.831 120.937 424.831C120.678 424.831 120.419 425.09 120.419 425.349Z" fill="#0C162C"/>
<path d="M117.446 425.349C117.446 425.608 117.705 425.866 117.964 425.866C118.223 425.866 118.481 425.608 118.481 425.349C118.481 425.09 118.223 424.831 117.964 424.831C117.705 424.831 117.446 425.09 117.446 425.349Z" fill="#0C162C"/>
<path d="M114.468 425.349C114.468 425.608 114.726 425.866 114.985 425.866C115.244 425.866 115.503 425.608 115.503 425.349C115.503 425.09 115.244 424.831 114.985 424.831C114.726 424.831 114.468 425.09 114.468 425.349Z" fill="#0C162C"/>
<path d="M111.494 425.349C111.494 425.608 111.753 425.866 112.012 425.866C112.271 425.866 112.53 425.608 112.53 425.349C112.53 425.09 112.271 424.831 112.012 424.831C111.753 424.831 111.494 425.09 111.494 425.349Z" fill="#0C162C"/>
<path d="M112.916 427.29C112.916 427.549 113.175 427.807 113.433 427.807C113.692 427.807 113.951 427.549 113.951 427.29C113.951 427.031 113.692 426.772 113.433 426.772C113.175 426.772 112.916 427.031 112.916 427.29Z" fill="#0C162C"/>
<path d="M115.891 427.29C115.891 427.549 116.15 427.807 116.408 427.807C116.667 427.807 116.926 427.549 116.926 427.29C116.926 427.031 116.667 426.772 116.408 426.772C116.15 426.772 115.891 427.031 115.891 427.29Z" fill="#0C162C"/>
<path d="M118.87 427.29C118.87 427.549 119.128 427.807 119.387 427.807C119.646 427.807 119.905 427.549 119.905 427.29C119.905 427.031 119.646 426.772 119.387 426.772C119.128 426.772 118.87 427.031 118.87 427.29Z" fill="#0C162C"/>
<path d="M121.975 427.29C121.975 427.549 122.234 427.807 122.492 427.807C122.751 427.807 123.01 427.549 123.01 427.29C123.01 427.031 122.751 426.772 122.492 426.772C122.234 426.772 121.975 427.031 121.975 427.29Z" fill="#0C162C"/>
<path d="M124.95 427.29C124.95 427.549 125.209 427.807 125.467 427.807C125.726 427.807 125.985 427.549 125.985 427.29C125.985 427.031 125.726 426.772 125.467 426.772C125.209 426.772 124.95 427.031 124.95 427.29Z" fill="#0C162C"/>
<path d="M127.925 427.29C127.925 427.549 128.184 427.807 128.442 427.807C128.701 427.807 128.96 427.549 128.96 427.29C128.96 427.031 128.701 426.772 128.442 426.772C128.184 426.772 127.925 427.031 127.925 427.29Z" fill="#0C162C"/>
<path d="M129.219 429.619C129.219 429.877 129.478 430.136 129.737 430.136C129.996 430.136 130.255 429.877 130.255 429.619C130.255 429.36 129.996 429.101 129.737 429.101C129.478 428.972 129.219 429.23 129.219 429.619Z" fill="#0C162C"/>
<path d="M126.241 429.619C126.241 429.877 126.5 430.136 126.758 430.136C127.017 430.136 127.276 429.877 127.276 429.619C127.276 429.36 127.017 429.101 126.758 429.101C126.5 428.972 126.241 429.23 126.241 429.619Z" fill="#0C162C"/>
<path d="M123.268 429.619C123.268 429.878 123.526 430.137 123.785 430.137C124.044 430.137 124.303 429.878 124.303 429.619C124.303 429.361 124.044 429.102 123.785 429.102C123.526 428.972 123.268 429.231 123.268 429.619Z" fill="#0C162C"/>
<path d="M120.419 429.619C120.419 429.877 120.678 430.136 120.937 430.136C121.196 430.136 121.455 429.877 121.455 429.619C121.455 429.36 121.196 429.101 120.937 429.101C120.678 428.972 120.419 429.23 120.419 429.619Z" fill="#0C162C"/>
<path d="M117.446 429.619C117.446 429.877 117.705 430.136 117.964 430.136C118.223 430.136 118.481 429.877 118.481 429.619C118.481 429.36 118.223 429.101 117.964 429.101C117.705 428.972 117.446 429.23 117.446 429.619Z" fill="#0C162C"/>
<path d="M114.468 429.619C114.468 429.878 114.726 430.137 114.985 430.137C115.244 430.137 115.503 429.878 115.503 429.619C115.503 429.361 115.244 429.102 114.985 429.102C114.726 428.972 114.468 429.231 114.468 429.619Z" fill="#0C162C"/>
<path d="M111.494 429.619C111.494 429.877 111.753 430.136 112.012 430.136C112.271 430.136 112.53 429.877 112.53 429.619C112.53 429.36 112.271 429.101 112.012 429.101C111.753 428.972 111.494 429.23 111.494 429.619Z" fill="#0C162C"/>
<path d="M113.433 432.077C113.148 432.077 112.916 431.845 112.916 431.559C112.916 431.273 113.148 431.042 113.433 431.042C113.719 431.042 113.951 431.273 113.951 431.559C113.951 431.845 113.719 432.077 113.433 432.077Z" fill="#0C162C"/>
<path d="M116.408 432.077C116.123 432.077 115.891 431.845 115.891 431.559C115.891 431.273 116.123 431.042 116.408 431.042C116.694 431.042 116.926 431.273 116.926 431.559C116.926 431.845 116.694 432.077 116.408 432.077Z" fill="#0C162C"/>
<path d="M118.87 431.559C118.87 431.818 119.128 432.077 119.387 432.077C119.646 432.077 119.905 431.818 119.905 431.559C119.905 431.301 119.646 431.042 119.387 431.042C119.128 431.042 118.87 431.301 118.87 431.559Z" fill="#0C162C"/>
<path d="M122.492 432.077C122.207 432.077 121.975 431.845 121.975 431.559C121.975 431.273 122.207 431.042 122.492 431.042C122.778 431.042 123.01 431.273 123.01 431.559C123.01 431.845 122.778 432.077 122.492 432.077Z" fill="#0C162C"/>
<path d="M125.467 432.078C125.182 432.078 124.95 431.846 124.95 431.56C124.95 431.274 125.182 431.043 125.467 431.043C125.753 431.043 125.985 431.274 125.985 431.56C125.985 431.846 125.753 432.078 125.467 432.078Z" fill="#0C162C"/>
<path d="M127.925 431.56C127.925 431.819 128.184 432.078 128.442 432.078C128.701 432.078 128.96 431.819 128.96 431.56C128.96 431.302 128.701 431.043 128.442 431.043C128.184 431.043 127.925 431.302 127.925 431.56Z" fill="#0C162C"/>
<path d="M134.658 279.741C134.658 279.741 133.821 279.741 132.425 280.16C131.029 280.579 128.936 281.695 126.982 283.789C125.028 285.882 123.353 289.093 122.097 293.001C120.841 296.909 119.724 301.375 119.026 306.539C117.491 316.728 117.212 329.01 118.189 342.549C118.468 345.899 119.305 349.527 121.259 352.458C122.236 353.994 123.632 355.25 125.167 356.227C126.703 357.204 128.657 357.762 130.611 357.483C132.565 357.343 134.379 356.506 135.775 355.11C136.473 354.412 137.031 353.575 137.31 352.598C137.589 351.621 137.589 350.504 137.31 349.527C136.752 347.573 135.356 345.899 133.402 345.201C132.425 344.782 131.308 344.922 130.331 345.201C129.354 345.619 128.517 346.178 127.819 347.015C126.563 348.69 126.144 350.784 126.423 352.738C126.703 354.692 127.54 356.506 128.377 358.181C130.331 361.531 133.123 364.322 136.333 366.137C142.893 369.905 150.988 369.765 156.99 366.416C160.06 364.741 162.573 362.508 164.527 359.856C166.481 357.343 168.016 354.552 169.133 351.621C171.226 345.899 171.924 340.316 172.203 335.151C172.482 329.987 172.203 325.381 172.761 321.334C173.041 319.38 173.459 317.426 174.018 315.89C174.576 314.216 175.413 312.959 176.39 311.843C178.205 309.61 180.159 308.493 181.555 308.074C182.95 307.656 183.788 307.656 183.788 307.516C183.788 307.516 182.95 307.516 181.555 307.935C180.159 308.354 178.065 309.47 176.251 311.703C175.274 312.82 174.436 314.216 173.878 315.89C173.18 317.565 172.761 319.38 172.482 321.473C171.924 325.521 172.203 330.127 171.924 335.291C171.645 340.316 170.947 346.038 168.853 351.621C167.737 354.412 166.341 357.204 164.387 359.577C162.433 362.089 159.921 364.322 156.99 365.857C151.128 369.068 143.312 369.207 137.031 365.578C133.96 363.764 131.169 361.112 129.354 357.762C128.517 356.087 127.68 354.412 127.4 352.598C127.121 350.784 127.54 348.83 128.657 347.294C129.215 346.596 129.913 346.038 130.75 345.619C131.588 345.34 132.565 345.34 133.402 345.619C135.077 346.178 136.333 347.853 136.891 349.527C137.45 351.202 136.752 353.156 135.496 354.412C134.239 355.669 132.565 356.366 130.75 356.646C128.936 356.785 127.261 356.366 125.726 355.389C124.19 354.552 122.934 353.156 121.957 351.761C120.003 348.83 119.305 345.48 118.886 342.13C117.909 328.731 118.189 316.449 119.584 306.4C120.282 301.375 121.399 296.769 122.515 293.001C123.632 289.093 125.307 286.022 127.261 283.928C129.215 281.835 131.169 280.718 132.565 280.3C133.96 279.741 134.658 279.741 134.658 279.741Z" fill="#E0E0E0"/>
<path d="M544.539 328.158C547.847 328.166 550.524 330.85 550.524 334.158V334.595C550.524 337.909 547.837 340.595 544.524 340.595H487.945C484.631 340.595 481.945 343.281 481.945 346.595V524.852H475.734V346.625C475.734 343.299 473.029 340.608 469.704 340.625L195.614 341.989C192.312 342.005 189.644 344.686 189.644 347.988V524.852H183.433V347.683C183.433 344.349 180.714 341.654 177.38 341.683L145.362 341.965C142.028 341.994 139.309 339.3 139.309 335.965V333.153C139.309 329.833 142.005 327.145 145.324 327.153L544.539 328.158Z" fill="#0C162C"/>
<path d="M556.526 167H503C500.239 167 498 169.239 498 172V207C498 209.761 500.239 212 503 212H556.526C559.287 212 561.526 209.761 561.526 207V172C561.526 169.239 559.287 167 556.526 167Z" fill="#6084FD"/>
<path d="M519.452 187.851V196.804H517.318V193.152H513.289V196.804H511.155V187.851H513.289V191.385H517.318V187.851H519.452Z" fill="white"/>
<path d="M523.481 189.618H520.518V187.969H528.341V189.618H525.496V196.804H523.363V189.618H523.481Z" fill="white"/>
<path d="M529.526 187.851H531.659V195.037H536.163V196.686H529.526V187.851Z" fill="white"/>
<path d="M545.407 196.804V191.503L542.8 195.861H541.852L539.244 191.62V196.804H537.348V187.851H539.126L542.444 193.387L545.763 187.851H547.422V196.804H545.407Z" fill="white"/>
<path d="M562 173.715C562 173.832 547.659 173.95 530 173.95C512.341 173.832 498 173.832 498 173.715C498 173.597 512.341 173.479 530 173.479C547.659 173.479 562 173.597 562 173.715Z" fill="white"/>
<path d="M503.215 170.416C503.215 170.77 502.859 171.123 502.385 171.123C501.911 171.123 501.556 170.77 501.556 170.416C501.556 170.063 501.911 169.709 502.385 169.709C502.859 169.592 503.215 169.945 503.215 170.416Z" fill="white"/>
<path d="M506.296 170.416C506.296 170.77 505.941 171.123 505.467 171.123C504.993 171.123 504.637 170.77 504.637 170.416C504.637 170.063 504.993 169.709 505.467 169.709C505.941 169.592 506.296 169.945 506.296 170.416Z" fill="white"/>
<path d="M509.496 170.416C509.496 170.77 509.141 171.123 508.667 171.123C508.192 171.123 507.718 170.77 507.718 170.416C507.718 170.063 508.074 169.709 508.548 169.709C509.022 169.709 509.496 169.945 509.496 170.416Z" fill="white"/>
<rect x="180" y="1" width="251" height="68" rx="19" fill="white" stroke="#1D1D1F" stroke-width="2"/>
<path d="M238.296 40L237.064 36.832H232.04L230.84 40H229.16L233.672 28.656H235.48L239.992 40H238.296ZM234.536 30.288L232.6 35.376H236.504L234.536 30.288ZM251.198 37.632L253.646 28.656H255.262L252.03 40H250.414L247.454 30.8L244.526 40H242.958L239.678 28.656H241.294L243.79 37.536L246.638 28.656H248.286L251.198 37.632ZM264.077 40L262.845 36.832H257.821L256.621 40H254.941L259.453 28.656H261.261L265.773 40H264.077ZM260.317 30.288L258.381 35.376H262.285L260.317 30.288ZM268.978 40H267.378V28.656H268.978V40ZM279.734 30.112H275.942V40H274.374V30.112H270.582V28.656H279.734V30.112ZM282.931 40H281.331V28.656H282.931V40ZM295.143 40H293.511L287.383 30.752V40H285.815V28.656H287.911L293.575 37.36V28.656H295.143V40ZM307.842 40H306.578L306.434 38.4C306.157 38.9013 305.703 39.3333 305.074 39.696C304.445 40.0587 303.687 40.24 302.802 40.24C301.831 40.24 300.935 40.0213 300.114 39.584C299.293 39.136 298.615 38.4533 298.082 37.536C297.559 36.6187 297.298 35.5467 297.298 34.32C297.298 33.0933 297.575 32.0213 298.13 31.104C298.685 30.1867 299.378 29.5093 300.21 29.072C301.053 28.6347 301.954 28.416 302.914 28.416C304.13 28.416 305.186 28.7307 306.082 29.36C306.989 29.9787 307.607 30.8053 307.938 31.84L306.514 32.448C306.258 31.6267 305.81 30.992 305.17 30.544C304.541 30.0853 303.789 29.856 302.914 29.856C301.815 29.856 300.871 30.2453 300.082 31.024C299.293 31.8027 298.898 32.9013 298.898 34.32C298.898 35.7493 299.282 36.8587 300.05 37.648C300.829 38.4267 301.762 38.816 302.85 38.816C303.447 38.816 303.975 38.72 304.434 38.528C304.903 38.336 305.266 38.0853 305.522 37.776C305.789 37.456 305.986 37.136 306.114 36.816C306.253 36.496 306.333 36.176 306.354 35.856H302.418V34.448H307.842V40ZM318.061 37.984L321.517 28.656H323.165L318.797 40H317.245L312.973 28.656H314.637L318.061 37.984ZM331.749 40L330.517 36.832H325.493L324.293 40H322.613L327.125 28.656H328.933L333.445 40H331.749ZM327.989 30.288L326.053 35.376H329.957L327.989 30.288ZM341.977 40H335.049V28.656H336.617V38.528H341.977V40ZM345.415 40H343.815V28.656H345.415V40ZM349.867 38.608H352.187C353.297 38.608 354.214 38.24 354.939 37.504C355.675 36.768 356.043 35.7173 356.043 34.352C356.043 32.976 355.681 31.9147 354.955 31.168C354.241 30.4213 353.329 30.048 352.219 30.048H349.867V38.608ZM352.235 40H348.299V28.656H352.267C353.793 28.656 355.073 29.1627 356.107 30.176C357.142 31.1787 357.659 32.5707 357.659 34.352C357.659 36.1227 357.137 37.5093 356.091 38.512C355.046 39.504 353.761 40 352.235 40ZM367.265 40L366.033 36.832H361.009L359.809 40H358.129L362.641 28.656H364.449L368.961 40H367.265ZM363.505 30.288L361.569 35.376H365.473L363.505 30.288ZM377.39 30.112H373.598V40H372.03V30.112H368.238V28.656H377.39V30.112ZM380.587 40H378.987V28.656H380.587V40ZM385.551 31.04C384.751 31.8187 384.351 32.912 384.351 34.32C384.351 35.728 384.751 36.8267 385.551 37.616C386.351 38.4053 387.317 38.8 388.447 38.8C389.578 38.8 390.543 38.4053 391.343 37.616C392.143 36.8267 392.543 35.728 392.543 34.32C392.543 32.912 392.143 31.8187 391.343 31.04C390.543 30.2507 389.578 29.856 388.447 29.856C387.317 29.856 386.351 30.2507 385.551 31.04ZM382.751 34.32C382.751 33.4027 382.911 32.5653 383.231 31.808C383.562 31.0507 383.994 30.432 384.527 29.952C385.071 29.4613 385.679 29.0827 386.351 28.816C387.023 28.5493 387.722 28.416 388.447 28.416C389.173 28.416 389.871 28.5493 390.543 28.816C391.215 29.0827 391.818 29.4613 392.351 29.952C392.895 30.432 393.327 31.0507 393.647 31.808C393.978 32.5653 394.143 33.4027 394.143 34.32C394.143 35.536 393.861 36.6027 393.295 37.52C392.741 38.4373 392.037 39.12 391.183 39.568C390.33 40.016 389.418 40.24 388.447 40.24C387.477 40.24 386.565 40.016 385.711 39.568C384.858 39.12 384.149 38.4373 383.583 37.52C383.029 36.6027 382.751 35.536 382.751 34.32ZM405.627 40H403.995L397.867 30.752V40H396.299V28.656H398.395L404.059 37.36V28.656H405.627V40Z" fill="#0C162C"/>
<circle cx="211.5" cy="34.5" r="5.5" fill="white" stroke="#1D1D1F" stroke-width="2"/>
</svg>
