<svg width="230" height="195" viewBox="0 0 230 195" fill="none" xmlns="http://www.w3.org/2000/svg">
<path d="M196.532 115.17C196.532 115.17 182.677 110.913 164.133 90.2634C145.589 69.6142 138.128 43.4301 135.783 43.4301C133.439 43.4301 122.994 37.6823 99.5472 80.2581C76.1002 122.834 83.1343 133.691 87.1842 133.904C91.2342 134.116 119.157 128.582 136.21 131.775C153.262 134.968 174.578 145.612 174.578 145.612L196.532 115.17Z" fill="#3156D1"/>
<path d="M224.67 141.568L219.128 150.296L216.57 154.34C213.16 159.662 206.126 161.578 200.584 158.385L170.955 145.612L191.844 106.443L221.047 124.75C226.589 128.582 228.294 135.82 224.67 141.568Z" fill="white"/>
<path d="M206.125 154.978L195.041 173.286L190.351 171.583L156.886 195L149.426 177.118C149.426 177.118 168.61 170.519 172.66 164.132C176.71 157.746 172.66 155.83 172.66 155.83L182.252 146.463L206.125 154.978Z" fill="white"/>
<path d="M100.829 81.3225C88.2529 104.313 82.2846 125.388 87.1872 128.156C92.3029 130.923 106.584 114.532 119.16 91.3278C131.736 68.3369 137.705 47.2619 132.802 44.4944C127.686 41.727 113.405 58.1187 100.829 81.3225Z" fill="white"/>
<path d="M226.376 154.978L218.277 151.785L224.245 142.419L230 146.676L226.376 154.978Z" fill="#3156D1"/>
<path d="M178.843 149.443L199.946 165.196L203.143 159.874L178.843 149.443Z" fill="#3156D1"/>
<path d="M224.245 142.419L218.276 151.785L219.982 152.424L224.884 143.057L224.245 142.419Z" fill="#3156D1"/>
<path d="M218.275 144.334C218.062 144.547 214.225 142.631 209.323 140.077C204.633 137.522 200.797 135.181 201.01 134.968C201.223 134.755 205.06 136.671 209.962 139.225C214.652 141.78 218.488 143.909 218.275 144.334Z" fill="#3156D1"/>
<path d="M221.259 138.587C221.045 138.8 217.422 137.097 213.159 134.542C208.896 131.988 205.485 129.859 205.698 129.433C205.911 129.22 209.535 130.923 213.798 133.478C218.061 136.245 221.472 138.374 221.259 138.587Z" fill="#3156D1"/>
<path d="M214.654 150.082C214.654 150.295 213.588 149.869 212.096 149.23C211.243 149.018 210.391 148.592 209.538 148.166C208.472 147.74 207.62 147.102 206.341 146.463C202.078 144.121 198.667 141.78 198.881 141.567C199.094 141.354 202.504 143.27 206.98 145.612C208.046 146.25 209.112 146.889 209.965 147.315C210.817 147.74 211.67 148.166 212.522 148.592C213.801 149.443 214.654 149.869 214.654 150.082Z" fill="#3156D1"/>
<path d="M123.21 77.4912C123.21 77.4912 111.486 68.976 103.386 85.1548C95.4996 101.334 108.076 104.953 108.076 104.953C114.257 97.076 119.16 88.1351 123.21 77.4912Z" fill="#3156D1"/>
<path d="M137.703 58.7577C137.703 58.7577 137.49 59.8221 137.064 61.9509C136.424 63.8668 135.785 66.8471 134.719 70.466C134.079 72.1691 133.44 74.085 132.587 76.2138C132.161 77.2781 131.735 78.3425 131.308 79.4069C131.095 80.0456 130.882 80.4713 130.669 81.11C130.456 81.7486 130.243 82.1744 129.816 82.813C128.751 84.9418 127.685 87.2835 126.406 89.838C126.193 90.4766 125.766 91.1153 125.553 91.7539C125.34 92.3925 124.914 93.0312 124.487 93.4569C123.848 94.7342 122.995 95.7986 122.356 97.0759C121.716 98.3531 120.864 99.4175 120.224 100.695C119.798 101.333 119.585 101.972 119.159 102.398C118.732 103.036 118.306 103.462 118.093 104.101C116.601 106.23 115.109 108.358 113.617 110.487C113.19 110.913 112.977 111.552 112.551 111.977C112.124 112.403 111.698 112.829 111.485 113.255C110.846 114.106 109.993 114.958 109.353 115.809C107.861 117.512 106.582 119.002 105.517 120.493C102.959 123.26 100.827 125.176 99.3352 126.666C97.8432 128.156 96.9905 128.795 96.9905 128.795C96.9905 128.795 97.63 127.943 99.1221 126.24C100.614 124.75 102.533 122.408 105.09 119.854C106.156 118.364 107.435 116.874 108.927 115.171C109.567 114.319 110.206 113.468 111.059 112.616C111.485 112.19 111.698 111.765 112.124 111.339C112.551 110.913 112.764 110.274 113.19 109.849C114.469 107.933 115.961 105.804 117.453 103.462C117.88 102.824 118.306 102.398 118.519 101.759C118.945 101.121 119.159 100.695 119.585 100.056C120.224 98.7789 121.077 97.7145 121.716 96.4372C122.356 95.16 123.209 94.0956 123.848 92.8183C124.274 92.1797 124.487 91.7539 124.914 91.1153C125.127 90.4766 125.553 89.838 125.766 89.4122C126.832 87.0706 128.111 84.7289 129.177 82.6001C129.39 81.9615 129.816 81.5357 130.029 80.8971C130.243 80.2585 130.456 79.8327 130.669 79.1941C131.095 78.1297 131.522 77.0653 131.948 76.0009C132.8 74.085 133.44 72.1691 134.293 70.466C135.358 67.06 136.424 64.0797 137.064 62.1638C137.277 59.8221 137.703 58.7577 137.703 58.7577Z" fill="white"/>
<path d="M57.1304 0.00290948C56.9173 0.215788 65.6566 12.137 76.7406 26.3999C87.8247 40.8756 96.9903 52.3711 97.2035 52.1582C97.4166 51.9453 88.6773 40.0241 77.5933 25.7612C66.5092 11.2855 57.3436 -0.209969 57.1304 0.00290948Z" fill="white"/>
<path d="M0.00263214 33.8503C-0.210526 34.0631 18.3339 43.0041 41.1414 53.4351C63.9489 64.0791 82.4933 72.3813 82.7065 72.1685C82.9196 71.9556 64.3752 63.0147 41.5677 52.5836C18.5471 41.9397 0.00263214 33.4245 0.00263214 33.8503Z" fill="white"/>
<path d="M8.52972 104.1C8.52972 104.313 21.7453 103.462 37.7319 101.759C53.9316 100.268 66.934 98.7782 66.934 98.3525C66.934 98.1396 53.7185 98.9911 37.7319 100.694C21.5322 102.184 8.52972 103.887 8.52972 104.1Z" fill="white"/>
</svg>
