<svg width="20" height="20" viewBox="0 0 20 20" fill="none" xmlns="http://www.w3.org/2000/svg">
<path d="M18.5539 2.02315C18.3166 1.82576 18.0303 1.6964 17.7253 1.64882C17.4204 1.60124 17.1082 1.63724 16.8221 1.75297L1.88803 7.78243C1.56865 7.91383 1.29679 8.13926 1.10853 8.42878C0.920266 8.7183 0.824503 9.05823 0.83395 9.40346C0.843398 9.74868 0.957611 10.0829 1.16143 10.3617C1.36525 10.6404 1.64903 10.8507 1.97511 10.9644L4.99595 12.015L6.6797 17.583C6.70258 17.6574 6.73578 17.7282 6.77834 17.7934C6.7848 17.8034 6.79391 17.8108 6.80078 17.8205C6.84995 17.8891 6.90937 17.9498 6.97697 18.0003C6.99619 18.015 7.0146 18.0287 7.03515 18.0417C7.11427 18.0942 7.20188 18.1326 7.2941 18.1552L7.30396 18.156L7.30955 18.1584C7.365 18.1697 7.42143 18.1754 7.47801 18.1755C7.48345 18.1755 7.48829 18.1729 7.49368 18.1728C7.57906 18.1713 7.6637 18.1566 7.74459 18.1292C7.7634 18.1228 7.77953 18.112 7.79779 18.1043C7.8581 18.0793 7.91525 18.0473 7.96803 18.0088C8.0103 17.9732 8.05258 17.9376 8.09488 17.902L10.3467 15.4159L13.7052 18.0176C14.0009 18.2478 14.3649 18.3729 14.7396 18.3732C15.1322 18.3727 15.5128 18.2373 15.8174 17.9895C16.122 17.7418 16.3322 17.3968 16.4128 17.0125L19.1317 3.66541C19.1933 3.36501 19.1721 3.05351 19.0703 2.76423C18.9685 2.47496 18.79 2.2188 18.5539 2.02315ZM7.80844 12.2803C7.6929 12.3954 7.61391 12.5421 7.5814 12.7019L7.32347 13.9552L6.67009 11.7943L10.0578 10.0302L7.80844 12.2803ZM14.7266 16.7L10.7577 13.6255C10.5916 13.4972 10.3833 13.4362 10.1743 13.4546C9.96524 13.473 9.77081 13.5694 9.62973 13.7248L8.90855 14.5208L9.16342 13.2821L15.0659 7.37957C15.2068 7.23888 15.2926 7.05237 15.3079 6.85384C15.3231 6.65532 15.2668 6.45789 15.149 6.29734C15.0312 6.13678 14.8599 6.02371 14.6659 5.9786C14.472 5.9335 14.2683 5.95934 14.0918 6.05145L5.62074 10.462L2.5171 9.32622L17.4992 3.33254L14.7266 16.7Z" fill="#0C162C"/>
</svg>
