<svg width="177" height="32" viewBox="0 0 177 32" fill="none" xmlns="http://www.w3.org/2000/svg">
<path d="M27.302 24.616H22.032V8.636L15.742 24.616H11.39L5.1 8.84V24.616H0V0.509999H7.004L13.634 16.796L19.924 0.509999H27.302V24.616Z" fill="white"/>
<path d="M31.1459 19.958C31.1459 18.53 31.6105 17.3853 32.5399 16.524C33.4692 15.64 34.6705 15.0847 36.1439 14.858L40.1219 14.246C40.9379 14.1327 41.3459 13.7473 41.3459 13.09C41.3459 12.5687 41.1192 12.138 40.6659 11.798C40.2352 11.4353 39.6345 11.254 38.8639 11.254C38.0025 11.254 37.3112 11.5033 36.7899 12.002C36.2912 12.478 36.0192 13.056 35.9739 13.736L31.4859 12.818C31.5992 11.4127 32.2905 10.132 33.5599 8.976C34.8519 7.79733 36.6312 7.208 38.8979 7.208C41.4592 7.208 43.3405 7.82 44.5419 9.044C45.7659 10.268 46.3779 11.832 46.3779 13.736V21.998C46.3779 23.0633 46.4459 23.936 46.5819 24.616H41.9239C41.8105 24.1627 41.7539 23.528 41.7539 22.712C40.7792 24.2987 39.1925 25.092 36.9939 25.092C35.2032 25.092 33.7752 24.5933 32.7099 23.596C31.6672 22.576 31.1459 21.3633 31.1459 19.958ZM38.2519 21.352C39.1359 21.352 39.8725 21.0913 40.4619 20.57C41.0512 20.0487 41.3459 19.1873 41.3459 17.986V17.238L38.1499 17.748C36.8805 17.952 36.2459 18.5753 36.2459 19.618C36.2459 20.094 36.4045 20.502 36.7219 20.842C37.0619 21.182 37.5719 21.352 38.2519 21.352Z" fill="white"/>
<path d="M61.4704 7.718V12.818C60.9944 12.7047 60.4504 12.648 59.8384 12.648C58.6824 12.648 57.7304 13.022 56.9824 13.77C56.2571 14.518 55.8944 15.674 55.8944 17.238V24.616H50.7264V7.718H55.7244V9.996C56.1324 9.13467 56.7557 8.51133 57.5944 8.126C58.4331 7.74067 59.2717 7.548 60.1104 7.548C60.6317 7.548 61.0851 7.60467 61.4704 7.718Z" fill="white"/>
<path d="M81.6053 7.718L75.0093 14.824L81.7413 24.616H75.4173L71.4393 18.666L69.7733 20.468V24.616H64.6053V0H69.7733V13.396L74.9073 7.718H81.6053Z" fill="white"/>
<path d="M94.9431 24.616C94.8525 24.208 94.8071 23.6413 94.8071 22.916C94.3991 23.596 93.7758 24.1173 92.9371 24.48C92.0985 24.82 91.2145 24.99 90.2851 24.99C88.2905 24.99 86.7151 24.3667 85.5591 23.12C84.4258 21.8507 83.8591 20.2753 83.8591 18.394V7.718H89.0271V17.306C89.0271 18.1673 89.2538 18.87 89.7071 19.414C90.1831 19.958 90.8631 20.23 91.7471 20.23C92.6085 20.23 93.2885 19.9693 93.7871 19.448C94.3085 18.904 94.5691 18.2013 94.5691 17.34V7.718H99.7371V21.59C99.7371 22.7007 99.7938 23.7093 99.9071 24.616H94.9431Z" fill="white"/>
<path d="M109.451 31.076H104.283V7.718H109.281V9.452C109.666 8.86267 110.301 8.364 111.185 7.956C112.092 7.52533 113.112 7.31 114.245 7.31C116.648 7.31 118.552 8.13733 119.957 9.792C121.385 11.424 122.099 13.532 122.099 16.116C122.099 18.7 121.34 20.8307 119.821 22.508C118.325 24.1627 116.398 24.99 114.041 24.99C111.91 24.99 110.38 24.4233 109.451 23.29V31.076ZM115.911 19.278C116.659 18.53 117.033 17.4873 117.033 16.15C117.033 14.8127 116.659 13.7813 115.911 13.056C115.186 12.3307 114.279 11.968 113.191 11.968C112.126 11.968 111.219 12.3307 110.471 13.056C109.746 13.7813 109.383 14.8127 109.383 16.15C109.383 17.4873 109.746 18.53 110.471 19.278C111.219 20.0033 112.126 20.366 113.191 20.366C114.279 20.366 115.186 20.0033 115.911 19.278Z" fill="white"/>
<path d="M130.601 31.076H125.433V7.718H130.431V9.452C130.817 8.86267 131.451 8.364 132.335 7.956C133.242 7.52533 134.262 7.31 135.395 7.31C137.798 7.31 139.702 8.13733 141.107 9.792C142.535 11.424 143.249 13.532 143.249 16.116C143.249 18.7 142.49 20.8307 140.971 22.508C139.475 24.1627 137.549 24.99 135.191 24.99C133.061 24.99 131.531 24.4233 130.601 23.29V31.076ZM137.061 19.278C137.809 18.53 138.183 17.4873 138.183 16.15C138.183 14.8127 137.809 13.7813 137.061 13.056C136.336 12.3307 135.429 11.968 134.341 11.968C133.276 11.968 132.369 12.3307 131.621 13.056C130.896 13.7813 130.533 14.8127 130.533 16.15C130.533 17.4873 130.896 18.53 131.621 19.278C132.369 20.0033 133.276 20.366 134.341 20.366C135.429 20.366 136.336 20.0033 137.061 19.278Z" fill="white"/>
<path d="M150.494 14.144H157.26C157.214 13.3733 156.908 12.7047 156.342 12.138C155.798 11.5713 154.971 11.288 153.86 11.288C152.863 11.288 152.069 11.5827 151.48 12.172C150.89 12.7613 150.562 13.4187 150.494 14.144ZM157.634 18.53L161.952 19.754C161.521 21.318 160.626 22.61 159.266 23.63C157.906 24.6273 156.206 25.126 154.166 25.126C151.718 25.126 149.633 24.31 147.91 22.678C146.21 21.046 145.36 18.8587 145.36 16.116C145.36 13.4867 146.187 11.3447 147.842 9.69C149.519 8.03533 151.503 7.208 153.792 7.208C156.421 7.208 158.484 7.97867 159.98 9.52C161.498 11.0387 162.258 13.158 162.258 15.878C162.258 16.7393 162.224 17.272 162.156 17.476H150.392C150.437 18.4053 150.834 19.1873 151.582 19.822C152.33 20.434 153.214 20.74 154.234 20.74C155.979 20.74 157.113 20.0033 157.634 18.53Z" fill="white"/>
<path d="M176.32 7.718V12.818C175.844 12.7047 175.3 12.648 174.688 12.648C173.532 12.648 172.58 13.022 171.832 13.77C171.107 14.518 170.744 15.674 170.744 17.238V24.616H165.576V7.718H170.574V9.996C170.982 9.13467 171.605 8.51133 172.444 8.126C173.283 7.74067 174.121 7.548 174.96 7.548C175.481 7.548 175.935 7.60467 176.32 7.718Z" fill="white"/>
</svg>
